<?xml version="1.0" encoding="UTF-8" ?>
<!DOCTYPE svg PUBLIC "-//W3C//DTD SVG 1.1//EN" "http://www.w3.org/Graphics/SVG/1.1/DTD/svg11.dtd">
<svg width="674pt" height="674pt" viewBox="0 0 674 674" version="1.1" xmlns="http://www.w3.org/2000/svg">
<g id="#ffffffff">
<path fill="#ffffff" opacity="1.00" d=" M 512.45 183.59 C 527.97 181.40 544.18 182.26 558.94 187.85 C 576.22 194.20 591.05 206.33 601.92 221.07 C 623.38 250.14 623.52 293.06 602.25 322.28 C 593.17 334.82 581.20 345.36 567.37 352.37 C 548.30 361.88 525.83 363.70 505.21 358.75 C 487.48 354.42 471.65 343.95 459.57 330.42 C 448.98 318.71 441.39 304.16 438.68 288.55 C 435.20 268.49 437.84 247.00 448.07 229.19 C 461.62 205.76 485.38 187.65 512.45 183.59 M 516.50 193.71 C 489.74 197.03 466.32 215.97 455.09 240.13 C 447.56 256.95 446.53 276.43 451.56 294.10 C 456.58 311.50 468.36 326.49 482.98 336.95 C 508.12 355.02 544.47 355.57 570.14 338.25 C 584.90 328.26 596.98 313.83 602.80 296.86 C 609.46 276.80 607.90 253.92 597.74 235.30 C 590.84 222.78 580.58 212.20 568.58 204.50 C 553.28 194.70 534.39 191.32 516.50 193.71 Z" />
<path fill="#ffffff" opacity="1.00" d=" M 86.57 184.80 C 97.03 184.83 107.50 184.75 117.97 184.83 C 130.88 185.12 144.57 188.69 153.82 198.21 C 162.29 206.39 165.83 218.48 165.73 230.02 C 165.96 238.46 164.58 247.12 160.53 254.62 C 155.40 264.37 145.74 271.17 135.32 274.26 C 129.11 276.17 122.58 276.53 116.13 276.77 C 135.11 304.18 154.05 331.61 173.05 359.00 C 168.69 359.00 164.33 359.00 159.98 359.00 C 141.12 331.53 122.20 304.10 103.26 276.68 C 101.51 276.69 99.75 276.70 98.00 276.71 C 98.00 304.14 98.00 331.57 98.00 359.00 C 94.19 359.00 90.38 359.00 86.57 359.00 C 86.57 300.93 86.57 242.87 86.57 184.80 M 98.00 195.19 C 98.00 218.80 98.00 242.40 98.00 266.00 C 112.43 265.74 128.52 267.77 141.03 258.97 C 157.20 247.48 158.68 222.29 146.74 207.26 C 142.03 201.35 134.81 197.88 127.43 196.76 C 117.70 195.24 107.82 195.20 98.00 195.19 Z" />
<path fill="#ffffff" opacity="1.00" d=" M 199.57 184.80 C 227.38 184.80 255.19 184.80 283.00 184.80 C 283.00 188.27 283.00 191.73 283.00 195.20 C 259.00 195.20 235.00 195.20 211.00 195.20 C 211.00 216.32 211.00 237.44 211.00 258.57 C 234.40 258.57 257.80 258.57 281.20 258.57 C 281.20 262.04 281.20 265.52 281.20 269.00 C 257.80 269.00 234.40 269.00 211.00 269.00 C 211.00 295.52 211.00 322.05 211.00 348.57 C 235.00 348.56 259.00 348.57 283.00 348.57 C 283.00 352.04 283.00 355.52 283.00 359.00 C 255.19 359.00 227.38 359.00 199.57 359.00 C 199.57 300.93 199.57 242.87 199.57 184.80 Z" />
<path fill="#ffffff" opacity="1.00" d=" M 316.57 184.80 C 320.38 184.80 324.19 184.80 328.00 184.80 C 328.00 211.74 328.00 238.68 328.00 265.62 C 355.63 238.86 382.82 211.63 410.40 184.81 C 415.44 184.79 420.48 184.80 425.52 184.80 C 403.03 206.88 380.55 228.97 358.13 251.12 C 351.96 256.75 346.45 263.05 340.18 268.56 C 370.20 298.89 400.69 328.75 430.79 359.00 C 425.83 359.00 420.88 359.00 415.93 359.00 C 400.76 344.20 385.83 329.15 370.84 314.16 C 357.96 301.57 345.24 288.82 332.51 276.08 C 331.02 277.54 329.53 279.01 328.03 280.46 C 327.96 306.64 328.02 332.82 328.00 359.00 C 324.19 359.00 320.38 359.00 316.57 359.00 C 316.56 300.93 316.57 242.87 316.57 184.80 Z" />
<path fill="#ffffff" opacity="1.00" d=" M 549.43 423.49 C 552.20 421.66 555.69 420.82 559.00 421.09 C 563.26 421.51 566.53 425.16 567.60 429.14 C 568.28 430.92 566.71 432.30 565.86 433.65 C 569.49 433.76 573.00 436.25 573.35 440.05 C 574.33 444.86 571.15 448.98 567.84 452.03 C 570.86 453.67 573.51 456.96 572.42 460.59 C 570.75 465.50 565.42 467.56 562.34 471.42 C 558.41 475.36 556.61 480.67 554.29 485.57 C 553.64 485.47 552.36 485.26 551.72 485.15 C 550.78 481.69 550.97 477.92 549.14 474.73 C 546.36 468.80 539.52 465.60 537.85 459.06 C 536.79 454.89 540.79 452.32 543.89 450.62 C 540.36 447.72 538.64 442.64 539.82 438.23 C 541.83 435.35 545.19 434.01 548.34 432.78 C 547.78 429.73 547.23 426.02 549.43 423.49 Z" />
<path fill="#ffffff" opacity="1.00" d=" M 525.17 426.36 C 528.23 420.85 536.02 421.20 540.86 423.98 C 543.34 426.07 544.17 429.41 545.50 432.25 C 541.50 433.44 537.43 436.43 537.18 440.94 C 536.73 444.55 539.25 447.41 541.30 450.05 C 539.32 451.68 536.74 453.11 536.03 455.76 C 535.61 458.87 537.26 461.73 538.67 464.37 C 540.57 468.03 544.81 469.61 546.85 473.17 C 548.88 476.52 549.70 480.40 550.59 484.17 C 549.19 484.88 547.80 485.57 546.40 486.25 C 544.42 482.24 541.67 478.50 537.57 476.48 C 533.42 473.79 527.59 472.60 525.33 467.77 C 523.77 464.06 526.17 460.48 529.07 458.34 C 524.80 456.44 519.52 453.46 519.91 448.01 C 519.40 443.54 523.12 440.25 526.98 438.92 C 524.46 435.32 522.73 430.45 525.17 426.36 Z" />
<path fill="#ffffff" opacity="1.00" d=" M 129.26 428.38 C 130.89 424.93 134.48 424.40 137.91 424.83 C 138.23 425.91 138.54 426.99 138.86 428.08 C 141.00 428.08 143.66 427.72 144.93 429.90 C 147.02 432.20 146.10 435.40 145.06 437.95 C 146.36 439.05 148.52 439.87 148.07 441.97 C 148.45 443.87 146.53 444.58 145.34 445.53 C 146.93 447.71 149.17 450.61 147.38 453.34 C 146.30 455.27 143.89 454.82 142.05 454.97 C 141.45 456.57 141.49 458.84 139.66 459.64 C 138.29 460.04 136.86 460.12 135.46 460.31 C 134.78 464.01 133.73 467.62 132.72 471.25 C 137.28 471.64 141.54 474.49 143.51 478.62 C 144.78 481.89 144.48 485.50 144.14 488.92 C 143.20 497.35 140.98 505.57 139.17 513.85 C 150.90 513.36 162.64 512.82 174.38 512.56 C 170.66 504.90 171.37 496.08 172.05 487.84 C 173.12 475.59 184.33 465.10 196.62 464.86 C 208.37 464.10 220.17 463.66 231.95 464.28 C 238.30 464.67 245.19 463.72 250.94 467.08 C 263.36 474.15 266.62 492.81 257.86 503.95 C 255.96 506.57 253.48 508.67 250.96 510.67 C 276.05 510.03 301.14 509.79 326.23 509.84 C 323.15 506.52 319.96 503.30 317.19 499.71 C 320.57 498.69 323.56 496.64 324.92 493.28 C 328.64 496.59 332.01 500.27 335.15 504.14 C 334.06 499.27 331.47 494.91 327.84 491.51 C 328.95 490.49 330.04 489.45 331.11 488.40 C 332.43 489.06 333.75 489.73 335.08 490.41 C 334.58 488.69 334.09 486.98 333.63 485.26 C 337.70 484.77 341.27 482.61 343.22 478.96 C 345.49 480.66 348.18 481.21 350.95 480.61 C 352.43 481.92 353.99 483.15 355.61 484.30 C 356.21 483.91 356.82 483.53 357.43 483.15 C 354.17 483.64 352.65 479.53 354.13 477.19 C 354.82 476.16 355.67 475.25 356.48 474.32 C 356.14 473.99 355.47 473.31 355.13 472.98 C 355.20 472.21 355.33 470.66 355.40 469.89 C 356.74 469.77 358.09 469.68 359.44 469.60 C 359.85 468.79 360.26 467.98 360.68 467.18 C 362.25 467.32 363.91 467.42 364.95 465.98 C 367.30 463.26 370.75 465.75 373.19 466.99 C 377.96 463.64 384.85 467.73 384.35 473.50 C 387.23 474.82 389.86 477.05 390.35 480.37 C 389.21 481.51 388.08 482.67 386.93 483.80 C 387.55 484.19 388.79 484.97 389.41 485.36 C 389.16 486.87 388.37 488.11 387.25 489.14 C 387.35 489.78 387.54 491.06 387.63 491.70 C 386.73 492.38 385.88 493.13 384.92 493.72 C 382.63 493.72 380.71 492.29 378.77 491.26 C 375.99 492.34 372.95 493.31 369.99 492.31 C 365.99 491.25 363.63 487.60 361.80 484.18 C 360.93 484.06 359.17 483.82 358.30 483.70 C 356.86 488.35 354.53 492.76 354.18 497.70 C 357.67 495.08 360.12 491.39 361.89 487.46 C 363.43 491.33 367.47 492.36 371.08 493.38 C 364.51 497.04 360.76 503.74 357.34 510.14 C 358.36 509.54 359.38 508.93 360.41 508.34 C 360.58 507.68 360.93 506.35 361.10 505.69 C 362.58 506.01 364.06 506.38 365.53 506.78 C 368.28 506.16 370.74 507.17 371.89 509.79 C 396.39 510.12 420.89 510.46 445.39 510.92 C 440.07 509.18 434.99 506.77 430.15 503.97 C 428.09 506.46 426.40 511.29 422.41 510.24 C 418.77 504.07 418.32 496.71 416.06 490.06 C 409.98 479.67 406.42 467.65 406.92 455.56 C 423.37 449.28 443.18 454.03 455.31 466.74 C 464.99 476.35 474.03 486.93 479.95 499.32 C 491.08 497.93 502.22 495.64 513.48 496.13 C 510.97 502.52 505.79 507.34 501.49 512.55 C 509.81 512.74 518.13 513.05 526.44 513.38 C 524.85 506.72 526.23 499.08 531.20 494.15 C 536.33 488.83 544.00 487.14 551.11 486.64 C 560.53 485.76 570.64 490.39 575.13 498.93 C 578.06 503.96 578.57 510.06 577.12 515.65 C 581.89 515.99 586.77 515.60 591.47 516.64 C 593.79 517.79 590.92 519.93 589.62 520.66 C 586.10 521.54 582.38 520.87 578.80 520.78 C 545.51 519.19 512.22 517.65 478.90 516.92 C 463.92 516.10 448.92 515.99 433.92 516.01 C 416.62 515.11 399.28 515.06 381.96 515.01 C 357.33 514.37 332.69 514.85 308.05 514.69 C 284.38 515.43 260.68 514.60 237.02 515.67 C 201.66 516.61 166.28 517.29 130.95 519.06 C 121.97 519.11 113.03 520.01 104.05 520.11 C 98.72 520.20 93.42 521.52 88.08 520.99 C 86.12 521.30 86.11 518.12 87.33 517.33 C 88.86 515.84 91.15 516.03 93.11 515.85 C 99.40 515.62 105.69 515.31 111.97 514.91 C 110.07 505.99 109.14 496.91 107.84 487.90 C 107.28 483.95 107.30 479.34 110.33 476.33 C 114.39 472.32 120.44 471.86 125.82 471.32 C 128.21 470.98 130.83 471.42 132.98 470.09 C 130.37 469.84 127.77 469.67 125.16 469.49 C 125.33 465.79 125.91 462.13 126.61 458.50 L 125.16 458.59 C 125.62 457.14 126.09 455.72 126.57 454.28 C 127.93 452.82 129.78 451.40 129.85 449.23 C 129.41 447.42 127.90 446.21 126.70 444.91 C 126.60 443.23 127.30 441.23 126.03 439.85 C 124.92 438.80 123.51 438.12 122.25 437.30 C 123.11 434.83 123.76 432.26 124.96 429.93 C 126.09 428.82 127.83 428.84 129.26 428.38 M 425.00 459.87 C 422.65 461.18 422.11 463.93 422.80 466.35 C 425.19 465.75 428.05 464.62 428.50 461.84 C 429.47 459.75 426.37 458.34 425.00 459.87 M 437.65 459.39 C 436.68 466.01 432.89 471.68 429.13 477.03 C 426.22 481.03 421.59 483.04 417.29 485.16 C 423.81 487.30 431.21 484.62 435.09 479.04 C 439.19 473.54 441.82 465.59 437.65 459.39 M 208.69 469.86 C 210.62 472.20 211.78 475.29 214.13 477.19 C 227.17 477.58 240.36 475.67 253.33 477.93 C 249.30 471.63 241.30 470.42 234.46 469.75 C 225.91 469.13 217.15 467.75 208.69 469.86 M 191.45 472.60 C 181.95 475.96 176.46 486.30 176.66 496.04 C 176.65 501.81 178.26 508.34 183.18 511.88 C 188.31 512.24 193.53 512.03 198.65 511.53 C 204.55 509.27 206.33 502.57 207.83 497.08 C 210.18 489.83 208.05 481.59 203.25 475.83 C 200.44 472.44 195.59 471.07 191.45 472.60 M 114.05 482.89 C 114.41 493.60 114.88 504.49 118.01 514.80 C 118.47 514.79 119.38 514.76 119.84 514.74 C 119.35 506.41 116.95 498.30 116.38 489.97 C 116.01 485.49 117.35 481.09 117.14 476.62 C 115.46 478.31 113.74 480.30 114.05 482.89 M 564.78 498.84 C 565.98 502.17 566.93 505.59 568.32 508.85 C 568.71 510.30 570.26 510.65 571.42 511.29 C 573.46 506.29 571.04 501.10 567.90 497.21 C 566.85 497.74 565.81 498.29 564.78 498.84 M 479.40 505.73 C 484.88 506.66 490.46 506.69 496.00 506.54 C 499.18 506.61 501.78 504.55 504.30 502.92 C 495.94 501.59 487.45 503.54 479.40 505.73 M 477.66 508.04 C 480.17 509.78 482.64 512.34 485.97 512.00 C 489.43 512.05 492.89 512.30 496.36 512.25 C 490.48 509.58 483.98 508.93 477.66 508.04 M 568.16 515.03 C 569.30 515.16 570.45 515.28 571.61 515.41 C 571.89 515.11 572.45 514.52 572.73 514.23 C 571.88 513.71 571.02 513.21 570.16 512.75 C 569.10 513.10 568.77 514.23 568.16 515.03 Z" />
<path fill="#ffffff" opacity="1.00" d=" M 106.53 437.00 C 106.92 434.61 107.17 431.48 110.08 430.86 C 111.75 431.41 113.09 432.59 114.53 433.57 C 114.96 433.07 115.82 432.08 116.25 431.59 C 117.88 432.25 120.17 432.26 120.94 434.15 C 121.72 435.60 121.58 437.31 121.79 438.90 C 123.36 439.56 125.63 439.86 125.95 441.90 C 125.76 442.89 125.54 443.87 125.27 444.86 C 126.53 446.07 128.35 447.12 128.35 449.11 C 128.61 451.15 126.77 452.50 125.61 453.91 C 125.61 456.76 124.23 459.05 121.65 460.30 C 122.39 463.40 123.49 466.45 123.66 469.65 C 121.55 470.88 119.06 471.18 116.66 471.29 C 115.07 468.39 115.21 464.92 114.56 461.75 C 112.51 461.91 110.43 462.40 108.39 461.96 C 108.01 460.94 107.67 459.91 107.36 458.89 C 105.81 458.12 103.77 457.82 102.88 456.17 C 101.96 454.49 102.63 452.54 102.74 450.76 C 102.09 450.08 101.44 449.40 100.78 448.73 C 100.42 445.86 101.21 443.28 104.01 442.05 C 103.83 441.50 103.47 440.38 103.29 439.83 C 103.49 439.12 103.91 437.71 104.11 437.00 C 104.72 437.00 105.93 437.00 106.53 437.00 Z" />
<path fill="#ffffff" opacity="1.00" d=" M 571.69 433.02 C 575.21 431.58 579.09 430.04 582.91 431.25 C 586.91 432.14 589.95 435.93 590.03 440.01 C 589.95 442.37 588.37 444.26 587.17 446.18 C 591.70 447.50 594.61 453.48 591.75 457.56 C 589.21 461.45 584.43 462.60 580.34 464.11 C 583.44 465.61 585.52 468.39 585.56 471.92 C 581.15 477.11 574.05 477.31 568.05 479.30 C 564.50 480.31 562.21 483.34 560.02 486.09 C 558.55 485.96 557.08 485.82 555.62 485.67 C 557.12 480.96 559.89 476.74 562.92 472.88 C 566.84 468.90 572.83 466.56 574.75 460.88 C 575.56 457.21 572.61 454.46 570.11 452.34 C 572.99 449.30 575.41 445.42 575.33 441.09 C 575.08 438.05 573.07 435.62 571.69 433.02 Z" />
<path fill="#ffffff" opacity="1.00" d=" M 333.94 450.94 C 335.67 448.08 338.27 445.11 342.01 445.76 C 346.28 445.11 349.25 449.01 349.45 452.91 C 351.41 451.85 353.55 450.25 355.90 451.04 C 358.49 451.44 359.16 454.27 360.14 456.27 C 362.80 454.99 365.78 455.54 366.82 458.54 C 368.03 458.85 369.30 459.04 370.46 459.57 C 371.87 460.91 371.21 462.98 371.30 464.69 C 369.36 464.11 367.42 463.60 365.44 463.19 C 364.68 464.20 363.94 465.23 363.20 466.27 C 360.79 465.48 359.30 466.72 358.46 468.91 C 358.06 468.70 357.26 468.29 356.85 468.09 C 354.48 469.30 353.16 471.49 353.86 474.20 C 352.81 476.05 352.02 478.02 351.30 480.03 C 348.65 480.11 346.10 479.45 343.70 478.38 C 345.20 476.25 347.49 474.02 346.84 471.14 C 346.52 468.83 344.30 467.69 342.53 466.61 C 341.99 463.91 341.37 460.83 338.82 459.28 C 336.67 457.61 333.84 458.05 331.32 458.14 C 328.34 455.50 324.48 455.94 321.13 457.58 C 321.79 455.76 322.13 453.75 323.40 452.24 C 326.59 450.46 330.42 450.54 333.94 450.94 Z" />
<path fill="#ffffff" opacity="1.00" d=" M 444.18 453.88 C 453.25 453.14 461.60 457.64 469.54 461.42 C 471.15 462.44 474.38 463.34 473.05 465.83 C 469.56 467.41 465.99 469.22 464.48 473.02 C 461.08 468.09 457.43 463.12 452.41 459.73 C 449.65 457.79 446.14 456.81 444.18 453.88 Z" />
<path fill="#ffffff" opacity="1.00" d=" M 318.42 460.59 C 320.95 459.70 323.41 458.59 325.98 457.79 C 327.99 457.33 329.51 458.89 331.05 459.89 C 333.57 459.58 336.43 458.72 338.71 460.34 C 340.67 461.78 340.62 464.35 340.90 466.53 C 343.02 467.74 345.69 469.16 345.74 471.98 C 346.19 474.77 343.85 476.65 342.07 478.37 C 341.18 480.02 340.65 482.13 338.83 483.03 C 336.85 484.18 334.55 483.45 332.46 483.15 C 331.53 482.20 330.58 481.28 329.62 480.38 C 329.61 478.64 330.44 476.51 328.94 475.17 C 327.78 473.72 325.81 474.25 324.23 474.23 C 322.42 473.01 320.30 473.21 318.26 473.37 C 317.54 472.55 316.82 471.73 316.11 470.93 C 314.75 471.10 313.39 471.28 312.05 471.46 C 312.33 469.94 312.62 468.42 312.93 466.91 C 314.11 466.63 315.30 466.37 316.50 466.12 C 316.79 464.24 316.10 461.37 318.42 460.59 Z" />
<path fill="#ffffff" opacity="1.00" d=" M 268.37 479.16 C 270.65 476.66 271.78 472.93 275.02 471.45 C 278.36 474.43 273.01 477.60 271.76 480.42 C 275.17 480.69 279.29 481.75 279.56 485.89 C 277.42 486.85 275.33 487.96 273.66 489.65 C 274.86 491.25 276.07 492.85 277.28 494.46 C 274.92 497.19 272.05 494.48 269.48 493.59 C 268.88 495.20 269.58 497.74 267.69 498.63 C 266.11 499.81 263.77 497.89 264.46 496.09 C 265.60 491.78 266.79 487.16 265.10 482.81 C 264.75 480.72 262.78 478.45 264.14 476.41 C 266.22 474.55 266.97 478.09 268.37 479.16 Z" />
<path fill="#ffffff" opacity="1.00" d=" M 309.39 476.02 C 310.33 474.43 311.12 472.45 313.05 471.82 C 315.09 471.34 316.47 473.14 317.86 474.28 C 320.15 473.63 322.47 473.99 324.49 475.24 C 325.69 475.30 326.89 475.43 328.09 475.62 C 329.38 477.04 328.65 478.92 328.30 480.56 C 329.59 481.75 331.55 482.88 331.00 484.98 C 330.57 488.84 326.71 490.98 323.08 490.58 C 322.66 492.75 322.52 495.29 320.71 496.83 C 318.34 499.00 314.94 499.11 311.93 498.83 C 311.33 500.20 310.71 501.56 310.08 502.93 C 308.84 502.55 307.62 502.16 306.40 501.77 C 304.93 503.11 303.23 505.14 301.00 504.09 C 298.39 503.00 298.58 499.96 298.50 497.62 C 297.61 496.81 296.75 496.00 295.90 495.19 C 296.20 494.71 296.82 493.75 297.13 493.28 C 295.88 491.42 294.43 489.42 294.95 487.04 C 295.12 484.35 297.95 483.39 300.02 482.45 C 299.71 480.32 299.16 477.63 301.10 476.08 C 303.44 473.97 306.74 475.35 309.39 476.02 Z" />
<path fill="#ffffff" opacity="1.00" d=" M 184.41 482.51 C 185.99 481.37 187.21 483.55 187.18 484.96 C 187.74 486.97 185.99 488.27 184.87 489.63 C 183.61 487.57 182.16 484.43 184.41 482.51 Z" />
<path fill="#ffffff" opacity="1.00" d=" M 201.33 492.54 C 198.67 490.59 199.54 486.36 202.14 484.73 C 203.33 487.03 204.77 491.65 201.33 492.54 Z" />
<path fill="#ffffff" opacity="1.00" d=" M 191.29 489.19 C 195.38 486.42 196.79 496.61 191.92 496.13 C 189.88 494.50 189.62 491.14 191.29 489.19 Z" />
<path fill="#ffffff" opacity="1.00" d=" M 184.21 495.13 C 189.02 492.10 190.13 502.89 185.05 502.00 C 182.76 500.53 182.83 497.20 184.21 495.13 Z" />
<path fill="#ffffff" opacity="1.00" d=" M 198.23 496.19 C 202.10 493.83 203.33 502.52 199.00 502.08 C 196.74 501.08 196.74 497.83 198.23 496.19 Z" />
<path fill="#ffffff" opacity="1.00" d=" M 190.76 511.44 C 190.54 509.32 189.43 506.03 192.06 504.98 C 194.65 504.48 195.90 507.79 194.93 509.79 C 194.46 511.81 192.26 511.18 190.76 511.44 Z" />
</g>
<g id="#47b200ff">
<path fill="#47b200" opacity="1.00" d=" M 230.40 17.52 C 272.31 3.52 317.00 -2.08 361.06 1.07 C 421.01 5.09 479.72 25.72 529.03 60.04 C 580.76 95.81 622.16 146.33 646.90 204.16 C 663.61 242.84 672.65 284.73 674.00 326.83 L 674.00 347.28 C 672.23 406.94 654.36 466.03 622.41 516.47 C 586.94 572.93 534.33 618.40 473.31 645.28 C 396.01 679.64 305.66 683.10 225.90 655.00 C 193.03 643.50 161.99 626.82 134.23 605.80 C 72.64 559.43 27.72 491.35 9.87 416.30 C -5.40 353.01 -1.98 285.29 19.93 223.95 C 36.99 176.00 65.12 132.03 101.55 96.50 C 137.74 60.81 182.22 33.65 230.40 17.52 M 512.45 183.59 C 485.38 187.65 461.62 205.76 448.07 229.19 C 437.84 247.00 435.20 268.49 438.68 288.55 C 441.39 304.16 448.98 318.71 459.57 330.42 C 471.65 343.95 487.48 354.42 505.21 358.75 C 525.83 363.70 548.30 361.88 567.37 352.37 C 581.20 345.36 593.17 334.82 602.25 322.28 C 623.52 293.06 623.38 250.14 601.92 221.07 C 591.05 206.33 576.22 194.20 558.94 187.85 C 544.18 182.26 527.97 181.40 512.45 183.59 M 86.57 184.80 C 86.57 242.87 86.57 300.93 86.57 359.00 C 90.38 359.00 94.19 359.00 98.00 359.00 C 98.00 331.57 98.00 304.14 98.00 276.71 C 99.75 276.70 101.51 276.69 103.26 276.68 C 122.20 304.10 141.12 331.53 159.98 359.00 C 164.33 359.00 168.69 359.00 173.05 359.00 C 154.05 331.61 135.11 304.18 116.13 276.77 C 122.58 276.53 129.11 276.17 135.32 274.26 C 145.74 271.17 155.40 264.37 160.53 254.62 C 164.58 247.12 165.96 238.46 165.73 230.02 C 165.83 218.48 162.29 206.39 153.82 198.21 C 144.57 188.69 130.88 185.12 117.97 184.83 C 107.50 184.75 97.03 184.83 86.57 184.80 M 199.57 184.80 C 199.57 242.87 199.57 300.93 199.57 359.00 C 227.38 359.00 255.19 359.00 283.00 359.00 C 283.00 355.52 283.00 352.04 283.00 348.57 C 259.00 348.57 235.00 348.56 211.00 348.57 C 211.00 322.05 211.00 295.52 211.00 269.00 C 234.40 269.00 257.80 269.00 281.20 269.00 C 281.20 265.52 281.20 262.04 281.20 258.57 C 257.80 258.57 234.40 258.57 211.00 258.57 C 211.00 237.44 211.00 216.32 211.00 195.20 C 235.00 195.20 259.00 195.20 283.00 195.20 C 283.00 191.73 283.00 188.27 283.00 184.80 C 255.19 184.80 227.38 184.80 199.57 184.80 M 316.57 184.80 C 316.57 242.87 316.56 300.93 316.57 359.00 C 320.38 359.00 324.19 359.00 328.00 359.00 C 328.02 332.82 327.96 306.64 328.03 280.46 C 329.53 279.01 331.02 277.54 332.51 276.08 C 345.24 288.82 357.96 301.57 370.84 314.16 C 385.83 329.15 400.76 344.20 415.93 359.00 C 420.88 359.00 425.83 359.00 430.79 359.00 C 400.69 328.75 370.20 298.89 340.18 268.56 C 346.45 263.05 351.96 256.75 358.13 251.12 C 380.55 228.97 403.03 206.88 425.52 184.80 C 420.48 184.80 415.44 184.79 410.40 184.81 C 382.82 211.63 355.63 238.86 328.00 265.62 C 328.00 238.68 328.00 211.74 328.00 184.80 C 324.19 184.80 320.38 184.80 316.57 184.80 M 549.43 423.49 C 547.23 426.02 547.78 429.73 548.34 432.78 C 545.19 434.01 541.83 435.35 539.82 438.23 C 538.64 442.64 540.36 447.72 543.89 450.62 C 540.79 452.32 536.79 454.89 537.85 459.06 C 539.52 465.60 546.36 468.80 549.14 474.73 C 550.97 477.92 550.78 481.69 551.72 485.15 C 552.36 485.26 553.64 485.47 554.29 485.57 C 556.61 480.67 558.41 475.36 562.34 471.42 C 565.42 467.56 570.75 465.50 572.42 460.59 C 573.51 456.96 570.86 453.67 567.84 452.03 C 571.15 448.98 574.33 444.86 573.35 440.05 C 573.00 436.25 569.49 433.76 565.86 433.65 C 566.71 432.30 568.28 430.92 567.60 429.14 C 566.53 425.16 563.26 421.51 559.00 421.09 C 555.69 420.82 552.20 421.66 549.43 423.49 M 525.17 426.36 C 522.73 430.45 524.46 435.32 526.98 438.92 C 523.12 440.25 519.40 443.54 519.91 448.01 C 519.52 453.46 524.80 456.44 529.07 458.34 C 526.17 460.48 523.77 464.06 525.33 467.77 C 527.59 472.60 533.42 473.79 537.57 476.48 C 541.67 478.50 544.42 482.24 546.40 486.25 C 547.80 485.57 549.19 484.88 550.59 484.17 C 549.70 480.40 548.88 476.52 546.85 473.17 C 544.81 469.61 540.57 468.03 538.67 464.37 C 537.26 461.73 535.61 458.87 536.03 455.76 C 536.74 453.11 539.32 451.68 541.30 450.05 C 539.25 447.41 536.73 444.55 537.18 440.94 C 537.43 436.43 541.50 433.44 545.50 432.25 C 544.17 429.41 543.34 426.07 540.86 423.98 C 536.02 421.20 528.23 420.85 525.17 426.36 M 129.26 428.38 C 127.83 428.84 126.09 428.82 124.96 429.93 C 123.76 432.26 123.11 434.83 122.25 437.30 C 123.51 438.12 124.92 438.80 126.03 439.85 C 127.30 441.23 126.60 443.23 126.70 444.91 C 127.90 446.21 129.41 447.42 129.85 449.23 C 129.78 451.40 127.93 452.82 126.57 454.28 C 126.09 455.72 125.62 457.14 125.16 458.59 L 126.61 458.50 C 125.91 462.13 125.33 465.79 125.16 469.49 C 127.77 469.67 130.37 469.84 132.98 470.09 C 130.83 471.42 128.21 470.98 125.82 471.32 C 120.44 471.86 114.39 472.32 110.33 476.33 C 107.30 479.34 107.28 483.95 107.84 487.90 C 109.14 496.91 110.07 505.99 111.97 514.91 C 105.69 515.31 99.40 515.62 93.11 515.85 C 91.15 516.03 88.86 515.84 87.33 517.33 C 86.11 518.12 86.12 521.30 88.08 520.99 C 93.42 521.52 98.72 520.20 104.05 520.11 C 113.03 520.01 121.97 519.11 130.95 519.06 C 166.28 517.29 201.66 516.61 237.02 515.67 C 260.68 514.60 284.38 515.43 308.05 514.69 C 332.69 514.85 357.33 514.37 381.96 515.01 C 399.28 515.06 416.62 515.11 433.92 516.01 C 448.92 515.99 463.92 516.10 478.90 516.92 C 512.22 517.65 545.51 519.19 578.80 520.78 C 582.38 520.87 586.10 521.54 589.62 520.66 C 590.92 519.93 593.79 517.79 591.47 516.64 C 586.77 515.60 581.89 515.99 577.12 515.65 C 578.57 510.06 578.06 503.96 575.13 498.93 C 570.64 490.39 560.53 485.76 551.11 486.64 C 544.00 487.14 536.33 488.83 531.20 494.15 C 526.23 499.08 524.85 506.72 526.44 513.38 C 518.13 513.05 509.81 512.74 501.49 512.55 C 505.79 507.34 510.97 502.52 513.48 496.13 C 502.22 495.64 491.08 497.93 479.95 499.32 C 474.03 486.93 464.99 476.35 455.31 466.74 C 443.18 454.03 423.37 449.28 406.92 455.56 C 406.42 467.65 409.98 479.67 416.06 490.06 C 418.32 496.71 418.77 504.07 422.41 510.24 C 426.40 511.29 428.09 506.46 430.15 503.97 C 434.99 506.77 440.07 509.18 445.39 510.92 C 420.89 510.46 396.39 510.12 371.89 509.79 C 370.74 507.17 368.28 506.16 365.53 506.78 C 364.06 506.38 362.58 506.01 361.10 505.69 C 360.93 506.35 360.58 507.68 360.41 508.34 C 359.38 508.93 358.36 509.54 357.34 510.14 C 360.76 503.74 364.51 497.04 371.08 493.38 C 367.47 492.36 363.43 491.33 361.89 487.46 C 360.12 491.39 357.67 495.08 354.18 497.70 C 354.53 492.76 356.86 488.35 358.30 483.70 C 359.17 483.82 360.93 484.06 361.80 484.18 C 363.63 487.60 365.99 491.25 369.99 492.31 C 372.95 493.31 375.99 492.34 378.77 491.26 C 380.71 492.29 382.63 493.72 384.92 493.72 C 385.88 493.13 386.73 492.38 387.63 491.70 C 387.54 491.06 387.35 489.78 387.25 489.14 C 388.37 488.11 389.16 486.87 389.41 485.36 C 388.79 484.97 387.55 484.19 386.93 483.80 C 388.08 482.67 389.21 481.51 390.35 480.37 C 389.86 477.05 387.23 474.82 384.35 473.50 C 384.85 467.73 377.96 463.64 373.19 466.99 C 370.75 465.75 367.30 463.26 364.95 465.98 C 363.91 467.42 362.25 467.32 360.68 467.18 C 360.26 467.98 359.85 468.79 359.44 469.60 C 358.09 469.68 356.74 469.77 355.40 469.89 C 355.33 470.66 355.20 472.21 355.13 472.98 C 355.47 473.31 356.14 473.99 356.48 474.32 C 355.67 475.25 354.82 476.16 354.13 477.19 C 352.65 479.53 354.17 483.64 357.43 483.15 C 356.82 483.53 356.21 483.91 355.61 484.30 C 353.99 483.15 352.43 481.92 350.95 480.61 C 348.18 481.21 345.49 480.66 343.22 478.96 C 341.27 482.61 337.70 484.77 333.63 485.26 C 334.09 486.98 334.58 488.69 335.08 490.41 C 333.75 489.73 332.43 489.06 331.11 488.40 C 330.04 489.45 328.95 490.49 327.84 491.51 C 331.47 494.91 334.06 499.27 335.15 504.14 C 332.01 500.27 328.64 496.59 324.92 493.28 C 323.56 496.64 320.57 498.69 317.19 499.71 C 319.96 503.30 323.15 506.52 326.23 509.84 C 301.14 509.79 276.05 510.03 250.96 510.67 C 253.48 508.67 255.96 506.57 257.86 503.95 C 266.62 492.81 263.36 474.15 250.94 467.08 C 245.19 463.72 238.30 464.67 231.95 464.28 C 220.17 463.66 208.37 464.10 196.62 464.86 C 184.33 465.10 173.12 475.59 172.05 487.84 C 171.37 496.08 170.66 504.90 174.38 512.56 C 162.64 512.82 150.90 513.36 139.17 513.85 C 140.98 505.57 143.20 497.35 144.14 488.92 C 144.48 485.50 144.78 481.89 143.51 478.62 C 141.54 474.49 137.28 471.64 132.72 471.25 C 133.73 467.62 134.78 464.01 135.46 460.31 C 136.86 460.12 138.29 460.04 139.66 459.64 C 141.49 458.84 141.45 456.57 142.05 454.97 C 143.89 454.82 146.30 455.27 147.38 453.34 C 149.17 450.61 146.93 447.71 145.34 445.53 C 146.53 444.58 148.45 443.87 148.07 441.97 C 148.52 439.87 146.36 439.05 145.06 437.95 C 146.10 435.40 147.02 432.20 144.93 429.90 C 143.66 427.72 141.00 428.08 138.86 428.08 C 138.54 426.99 138.23 425.91 137.91 424.83 C 134.48 424.40 130.89 424.93 129.26 428.38 M 106.53 437.00 C 105.93 437.00 104.72 437.00 104.11 437.00 C 103.91 437.71 103.49 439.12 103.29 439.83 C 103.47 440.38 103.83 441.50 104.01 442.05 C 101.21 443.28 100.42 445.86 100.78 448.73 C 101.44 449.40 102.09 450.08 102.74 450.76 C 102.63 452.54 101.96 454.49 102.88 456.17 C 103.77 457.82 105.81 458.12 107.36 458.89 C 107.67 459.91 108.01 460.94 108.39 461.96 C 110.43 462.40 112.51 461.91 114.56 461.75 C 115.21 464.92 115.07 468.39 116.66 471.29 C 119.06 471.18 121.55 470.88 123.66 469.65 C 123.49 466.45 122.39 463.40 121.65 460.30 C 124.23 459.05 125.61 456.76 125.61 453.91 C 126.77 452.50 128.61 451.15 128.35 449.11 C 128.35 447.12 126.53 446.07 125.27 444.86 C 125.54 443.87 125.76 442.89 125.95 441.90 C 125.63 439.86 123.36 439.56 121.79 438.90 C 121.58 437.31 121.72 435.60 120.94 434.15 C 120.17 432.26 117.88 432.25 116.25 431.59 C 115.82 432.08 114.96 433.07 114.53 433.57 C 113.09 432.59 111.75 431.41 110.08 430.86 C 107.17 431.48 106.92 434.61 106.53 437.00 M 571.69 433.02 C 573.07 435.62 575.08 438.05 575.33 441.09 C 575.41 445.42 572.99 449.30 570.11 452.34 C 572.61 454.46 575.56 457.21 574.75 460.88 C 572.83 466.56 566.84 468.90 562.92 472.88 C 559.89 476.74 557.12 480.96 555.62 485.67 C 557.08 485.82 558.55 485.96 560.02 486.09 C 562.21 483.34 564.50 480.31 568.05 479.30 C 574.05 477.31 581.15 477.11 585.56 471.92 C 585.52 468.39 583.44 465.61 580.34 464.11 C 584.43 462.60 589.21 461.45 591.75 457.56 C 594.61 453.48 591.70 447.50 587.17 446.18 C 588.37 444.26 589.95 442.37 590.03 440.01 C 589.95 435.93 586.91 432.14 582.91 431.25 C 579.09 430.04 575.21 431.58 571.69 433.02 M 333.94 450.94 C 330.42 450.54 326.59 450.46 323.40 452.24 C 322.13 453.75 321.79 455.76 321.13 457.58 C 324.48 455.94 328.34 455.50 331.32 458.14 C 333.84 458.05 336.67 457.61 338.82 459.28 C 341.37 460.83 341.99 463.91 342.53 466.61 C 344.30 467.69 346.52 468.83 346.84 471.14 C 347.49 474.02 345.20 476.25 343.70 478.38 C 346.10 479.45 348.65 480.11 351.30 480.03 C 352.02 478.02 352.81 476.05 353.86 474.20 C 353.16 471.49 354.48 469.30 356.85 468.09 C 357.26 468.29 358.06 468.70 358.46 468.91 C 359.30 466.72 360.79 465.48 363.20 466.27 C 363.94 465.23 364.68 464.20 365.44 463.19 C 367.42 463.60 369.36 464.11 371.30 464.69 C 371.21 462.98 371.87 460.91 370.46 459.57 C 369.30 459.04 368.03 458.85 366.82 458.54 C 365.78 455.54 362.80 454.99 360.14 456.27 C 359.16 454.27 358.49 451.44 355.90 451.04 C 353.55 450.25 351.41 451.85 349.45 452.91 C 349.25 449.01 346.28 445.11 342.01 445.76 C 338.27 445.11 335.67 448.08 333.94 450.94 M 444.18 453.88 C 446.14 456.81 449.65 457.79 452.41 459.73 C 457.43 463.12 461.08 468.09 464.48 473.02 C 465.99 469.22 469.56 467.41 473.05 465.83 C 474.38 463.34 471.15 462.44 469.54 461.42 C 461.60 457.64 453.25 453.14 444.18 453.88 M 318.42 460.59 C 316.10 461.37 316.79 464.24 316.50 466.12 C 315.30 466.37 314.11 466.63 312.93 466.91 C 312.62 468.42 312.33 469.94 312.05 471.46 C 313.39 471.28 314.75 471.10 316.11 470.93 C 316.82 471.73 317.54 472.55 318.26 473.37 C 320.30 473.21 322.42 473.01 324.23 474.23 C 325.81 474.25 327.78 473.72 328.94 475.17 C 330.44 476.51 329.61 478.64 329.62 480.38 C 330.58 481.28 331.53 482.20 332.46 483.15 C 334.55 483.45 336.85 484.18 338.83 483.03 C 340.65 482.13 341.18 480.02 342.07 478.37 C 343.85 476.65 346.19 474.77 345.74 471.98 C 345.69 469.16 343.02 467.74 340.90 466.53 C 340.62 464.35 340.67 461.78 338.71 460.34 C 336.43 458.72 333.57 459.58 331.05 459.89 C 329.51 458.89 327.99 457.33 325.98 457.79 C 323.41 458.59 320.95 459.70 318.42 460.59 M 268.37 479.16 C 266.97 478.09 266.22 474.55 264.14 476.41 C 262.78 478.45 264.75 480.72 265.10 482.81 C 266.79 487.16 265.60 491.78 264.46 496.09 C 263.77 497.89 266.11 499.81 267.69 498.63 C 269.58 497.74 268.88 495.20 269.48 493.59 C 272.05 494.48 274.92 497.19 277.28 494.46 C 276.07 492.85 274.86 491.25 273.66 489.65 C 275.33 487.96 277.42 486.85 279.56 485.89 C 279.29 481.75 275.17 480.69 271.76 480.42 C 273.01 477.60 278.36 474.43 275.02 471.45 C 271.78 472.93 270.65 476.66 268.37 479.16 M 309.39 476.02 C 306.74 475.35 303.44 473.97 301.10 476.08 C 299.16 477.63 299.71 480.32 300.02 482.45 C 297.95 483.39 295.12 484.35 294.95 487.04 C 294.43 489.42 295.88 491.42 297.13 493.28 C 296.82 493.75 296.20 494.71 295.90 495.19 C 296.75 496.00 297.61 496.81 298.50 497.62 C 298.58 499.96 298.39 503.00 301.00 504.09 C 303.23 505.14 304.93 503.11 306.40 501.77 C 307.62 502.16 308.84 502.55 310.08 502.93 C 310.71 501.56 311.33 500.20 311.93 498.83 C 314.94 499.11 318.34 499.00 320.71 496.83 C 322.52 495.29 322.66 492.75 323.08 490.58 C 326.71 490.98 330.57 488.84 331.00 484.98 C 331.55 482.88 329.59 481.75 328.30 480.56 C 328.65 478.92 329.38 477.04 328.09 475.62 C 326.89 475.43 325.69 475.30 324.49 475.24 C 322.47 473.99 320.15 473.63 317.86 474.28 C 316.47 473.14 315.09 471.34 313.05 471.82 C 311.12 472.45 310.33 474.43 309.39 476.02 Z" />
<path fill="#47b200" opacity="1.00" d=" M 516.50 193.71 C 534.39 191.32 553.28 194.70 568.58 204.50 C 580.58 212.20 590.84 222.78 597.74 235.30 C 607.90 253.92 609.46 276.80 602.80 296.86 C 596.98 313.83 584.90 328.26 570.14 338.25 C 544.47 355.57 508.12 355.02 482.98 336.95 C 468.36 326.49 456.58 311.50 451.56 294.10 C 446.53 276.43 447.56 256.95 455.09 240.13 C 466.32 215.97 489.74 197.03 516.50 193.71 Z" />
<path fill="#47b200" opacity="1.00" d=" M 98.00 195.19 C 107.82 195.20 117.70 195.24 127.43 196.76 C 134.81 197.88 142.03 201.35 146.74 207.26 C 158.68 222.29 157.20 247.48 141.03 258.97 C 128.52 267.77 112.43 265.74 98.00 266.00 C 98.00 242.40 98.00 218.80 98.00 195.19 Z" />
<path fill="#47b200" opacity="1.00" d=" M 425.00 459.87 C 426.37 458.34 429.47 459.75 428.50 461.84 C 428.05 464.62 425.19 465.75 422.80 466.35 C 422.11 463.93 422.65 461.18 425.00 459.87 Z" />
<path fill="#47b200" opacity="1.00" d=" M 437.65 459.39 C 441.82 465.59 439.19 473.54 435.09 479.04 C 431.21 484.62 423.81 487.30 417.29 485.16 C 421.59 483.04 426.22 481.03 429.13 477.03 C 432.89 471.68 436.68 466.01 437.65 459.39 Z" />
<path fill="#47b200" opacity="1.00" d=" M 208.69 469.86 C 217.15 467.75 225.91 469.13 234.46 469.75 C 241.30 470.42 249.30 471.63 253.33 477.93 C 240.36 475.67 227.17 477.58 214.13 477.19 C 211.78 475.29 210.62 472.20 208.69 469.86 Z" />
<path fill="#47b200" opacity="1.00" d=" M 191.45 472.60 C 195.59 471.07 200.44 472.44 203.25 475.83 C 208.05 481.59 210.18 489.83 207.83 497.08 C 206.33 502.57 204.55 509.27 198.65 511.53 C 193.53 512.03 188.31 512.24 183.18 511.88 C 178.26 508.34 176.65 501.81 176.66 496.04 C 176.46 486.30 181.95 475.96 191.45 472.60 M 184.41 482.51 C 182.16 484.43 183.61 487.57 184.87 489.63 C 185.99 488.27 187.74 486.97 187.18 484.96 C 187.21 483.55 185.99 481.37 184.41 482.51 M 201.33 492.54 C 204.77 491.65 203.33 487.03 202.14 484.73 C 199.54 486.36 198.67 490.59 201.33 492.54 M 191.29 489.19 C 189.62 491.14 189.88 494.50 191.92 496.13 C 196.79 496.61 195.38 486.42 191.29 489.19 M 184.21 495.13 C 182.83 497.20 182.76 500.53 185.05 502.00 C 190.13 502.89 189.02 492.10 184.21 495.13 M 198.23 496.19 C 196.74 497.83 196.74 501.08 199.00 502.08 C 203.33 502.52 202.10 493.83 198.23 496.19 M 190.76 511.44 C 192.26 511.18 194.46 511.81 194.93 509.79 C 195.90 507.79 194.65 504.48 192.06 504.98 C 189.43 506.03 190.54 509.32 190.76 511.44 Z" />
<path fill="#47b200" opacity="1.00" d=" M 114.05 482.89 C 113.74 480.30 115.46 478.31 117.14 476.62 C 117.35 481.09 116.01 485.49 116.38 489.97 C 116.95 498.30 119.35 506.41 119.84 514.74 C 119.38 514.76 118.47 514.79 118.01 514.80 C 114.88 504.49 114.41 493.60 114.05 482.89 Z" />
<path fill="#47b200" opacity="1.00" d=" M 564.78 498.84 C 565.81 498.29 566.85 497.74 567.90 497.21 C 571.04 501.10 573.46 506.29 571.42 511.29 C 570.26 510.65 568.71 510.30 568.32 508.85 C 566.93 505.59 565.98 502.17 564.78 498.84 Z" />
<path fill="#47b200" opacity="1.00" d=" M 479.40 505.73 C 487.45 503.54 495.94 501.59 504.30 502.92 C 501.78 504.55 499.18 506.61 496.00 506.54 C 490.46 506.69 484.88 506.66 479.40 505.73 Z" />
<path fill="#47b200" opacity="1.00" d=" M 477.66 508.04 C 483.98 508.93 490.48 509.58 496.36 512.25 C 492.89 512.30 489.43 512.05 485.97 512.00 C 482.64 512.34 480.17 509.78 477.66 508.04 Z" />
<path fill="#47b200" opacity="1.00" d=" M 568.16 515.03 C 568.77 514.23 569.10 513.10 570.16 512.75 C 571.02 513.21 571.88 513.71 572.73 514.23 C 572.45 514.52 571.89 515.11 571.61 515.41 C 570.45 515.28 569.30 515.16 568.16 515.03 Z" />
</g>
</svg>
