<?xml version="1.0" encoding="UTF-8" ?>
<!DOCTYPE svg PUBLIC "-//W3C//DTD SVG 1.1//EN" "http://www.w3.org/Graphics/SVG/1.1/DTD/svg11.dtd">
<svg width="1040pt" height="368pt" viewBox="0 0 1040 368" version="1.1" xmlns="http://www.w3.org/2000/svg">
<g id="#81df42ff">
<path fill="#81df42" opacity="1.00" d=" M 0.00 0.00 L 65.81 0.00 L 64.74 0.70 C 43.56 0.91 22.35 0.24 1.17 0.92 C 0.88 123.28 1.14 245.64 1.02 368.00 L 0.00 368.00 L 0.00 0.00 Z" />
</g>
<g id="#a3f66dff">
<path fill="#a3f66d" opacity="1.00" d=" M 65.81 0.00 L 73.28 0.00 L 74.34 0.72 C 71.15 1.04 67.93 0.99 64.74 0.70 L 65.81 0.00 Z" />
</g>
<g id="#e5ffc7ff">
<path fill="#e5ffc7" opacity="1.00" d=" M 73.28 0.00 L 85.46 0.00 C 89.11 1.02 92.57 2.60 96.09 4.00 C 88.86 2.79 81.63 1.54 74.34 0.72 L 73.28 0.00 Z" />
<path fill="#e5ffc7" opacity="1.00" d=" M 827.33 231.38 C 829.20 227.83 833.15 226.36 836.53 224.65 C 839.21 227.26 843.09 227.39 846.37 228.67 C 847.50 230.35 848.20 232.29 849.26 234.03 C 848.24 235.23 847.19 236.40 846.16 237.58 C 847.13 239.36 848.12 241.14 849.07 242.96 C 847.61 241.77 846.18 240.56 844.78 239.34 C 843.69 239.65 842.61 239.98 841.55 240.30 C 843.35 238.34 845.31 236.54 847.32 234.79 C 846.86 232.92 846.50 231.02 845.78 229.24 C 842.28 227.42 837.58 225.96 834.21 228.81 C 832.43 227.23 830.12 228.65 829.70 230.72 C 828.96 232.43 827.88 234.04 827.56 235.90 C 827.78 238.85 828.86 241.63 829.57 244.49 C 828.90 244.42 827.56 244.30 826.89 244.24 C 826.23 240.01 825.16 235.36 827.33 231.38 Z" />
<path fill="#e5ffc7" opacity="1.00" d=" M 862.66 232.81 C 864.64 234.26 866.60 235.94 867.49 238.32 C 866.85 237.77 865.55 236.68 864.91 236.13 C 863.51 237.92 861.97 239.60 860.11 240.89 L 860.36 239.98 C 861.03 237.56 861.83 235.17 862.66 232.81 Z" />
</g>
<g id="#ffffffff">
</g>
<g id="#d6f9c9ff">
<path fill="#d6f9c9" opacity="1.00" d=" M 232.27 0.00 L 233.90 0.00 C 233.70 99.67 233.87 199.33 233.82 299.00 C 233.91 322.00 233.67 345.00 233.91 368.00 L 232.17 368.00 C 232.64 348.67 232.24 329.33 232.37 310.00 C 232.28 206.67 232.52 103.33 232.27 0.00 Z" />
</g>
<g id="#60af29ff">
<path fill="#60af29" opacity="1.00" d=" M 233.90 0.00 L 409.39 0.00 L 409.41 0.99 C 391.94 1.56 374.47 1.16 357.00 1.25 C 316.38 1.20 275.77 1.41 235.15 1.14 C 235.30 87.09 235.15 173.05 235.19 259.00 C 235.09 295.33 235.39 331.67 235.08 368.00 L 233.91 368.00 C 233.67 345.00 233.91 322.00 233.82 299.00 C 233.87 199.33 233.70 99.67 233.90 0.00 Z" />
</g>
<g id="#68ad3fff">
<path fill="#68ad3f" opacity="1.00" d=" M 459.74 0.00 L 483.46 0.00 L 483.48 0.97 C 476.06 0.83 468.65 0.70 461.24 1.06 C 460.91 123.37 461.40 245.69 460.99 368.00 L 459.75 368.00 C 459.63 245.33 459.65 122.67 459.74 0.00 Z" />
</g>
<g id="#47b200ff">
<path fill="#47b200" opacity="1.00" d=" M 658.16 0.00 L 689.01 0.00 C 684.52 5.77 679.06 10.67 673.85 15.77 C 659.89 28.82 646.60 42.56 632.91 55.90 C 591.76 96.26 550.71 136.73 509.66 177.21 C 517.72 186.17 526.62 194.34 535.05 202.95 C 563.33 231.35 591.89 259.46 620.11 287.91 C 631.56 298.78 642.42 310.26 653.78 321.22 C 669.11 337.08 685.25 352.15 700.59 368.00 L 669.42 368.00 C 660.52 358.43 650.80 349.67 641.77 340.22 C 615.86 314.82 590.26 289.08 564.52 263.50 C 554.23 253.55 544.44 243.07 533.96 233.31 C 526.18 225.01 517.93 217.16 509.95 209.05 C 504.24 203.67 499.02 197.78 493.02 192.69 C 489.20 196.46 482.67 199.63 483.39 205.91 C 483.49 259.94 483.43 313.97 483.42 368.00 L 460.99 368.00 C 461.40 245.69 460.91 123.37 461.24 1.06 C 468.65 0.70 476.06 0.83 483.48 0.97 C 483.66 57.72 483.40 114.47 483.60 171.21 C 489.33 166.42 494.31 160.84 499.76 155.75 C 552.53 103.80 605.35 51.89 658.16 0.00 Z" />
<path fill="#47b200" opacity="1.00" d=" M 853.52 0.00 L 861.42 0.00 C 875.38 1.08 889.31 2.95 902.88 6.46 C 905.80 7.22 908.71 8.06 911.58 9.05 C 914.40 12.14 918.39 13.16 922.45 12.93 C 937.85 19.05 952.37 27.37 965.43 37.58 C 971.34 42.08 977.18 46.74 982.11 52.34 C 1010.15 77.51 1029.76 111.93 1036.77 149.00 C 1038.26 159.46 1039.68 169.95 1040.00 180.53 L 1040.00 187.49 C 1039.36 212.31 1034.21 237.17 1023.62 259.70 C 1012.21 284.87 993.85 306.21 973.33 324.43 C 966.88 329.29 960.63 334.43 953.87 338.87 C 947.93 343.02 941.25 345.95 935.16 349.87 C 932.95 350.79 930.73 351.62 928.48 352.42 C 925.18 352.66 922.06 353.77 919.65 356.10 C 907.39 361.19 894.34 364.01 881.26 366.02 C 874.93 366.46 868.60 366.98 862.34 368.00 L 846.58 368.00 C 832.43 367.12 818.37 364.96 804.58 361.71 C 789.12 357.24 774.17 350.98 760.31 342.80 C 757.62 340.92 754.81 339.25 751.93 337.69 C 744.29 331.90 736.69 326.06 729.39 319.84 C 723.07 312.76 715.79 306.58 709.89 299.12 C 704.55 292.82 699.97 285.94 694.92 279.42 C 691.38 273.12 687.60 266.94 684.69 260.31 C 684.14 251.33 678.77 243.74 676.95 235.07 C 676.05 230.72 674.48 226.53 672.03 222.82 C 668.18 205.50 667.72 187.66 668.58 170.00 C 669.98 148.94 675.14 128.13 683.99 108.96 C 698.91 76.81 723.65 49.74 752.84 29.92 C 768.83 18.98 786.86 11.41 805.42 6.08 C 821.22 2.55 837.32 0.24 853.52 0.00 M 839.75 22.07 C 830.89 23.12 821.74 23.61 813.34 26.81 C 807.05 27.69 801.21 30.42 795.19 32.30 C 776.55 39.76 759.37 50.74 744.58 64.31 C 740.55 64.13 737.33 67.11 735.32 70.30 C 732.86 74.12 729.74 77.43 726.57 80.66 C 725.11 82.31 722.74 84.11 724.17 86.53 C 702.20 114.21 690.31 149.66 691.27 185.00 C 690.81 207.66 696.08 230.14 705.06 250.86 L 703.97 250.95 C 708.85 253.26 714.40 251.92 719.60 252.45 C 722.69 252.87 726.20 251.07 726.80 247.83 C 727.13 248.62 727.80 250.19 728.14 250.98 C 729.42 247.79 728.10 244.45 727.71 241.23 C 726.96 237.60 727.26 233.89 727.72 230.25 C 730.72 231.13 733.59 229.76 735.27 227.23 C 737.04 229.07 739.33 230.64 740.37 233.06 C 740.72 238.88 737.48 244.10 736.78 249.78 C 737.61 249.90 739.25 250.14 740.07 250.26 C 740.03 250.65 739.94 251.44 739.90 251.83 C 745.51 251.63 751.20 251.07 756.75 252.31 C 757.41 251.12 758.07 249.93 758.74 248.75 L 758.59 248.00 C 759.22 248.26 760.48 248.77 761.12 249.03 C 763.07 250.88 765.58 251.46 768.21 250.85 C 767.95 250.53 767.42 249.90 767.16 249.58 C 767.96 248.06 768.79 246.54 769.59 245.02 C 770.44 246.44 771.43 247.77 772.27 249.22 C 776.49 247.50 777.82 242.83 778.62 238.75 C 779.20 235.31 777.93 231.82 775.94 229.05 C 774.25 226.52 770.65 225.95 768.01 227.24 C 767.81 226.46 767.62 225.68 767.44 224.90 C 765.57 225.33 763.27 225.22 762.00 226.92 C 763.48 225.23 765.48 224.14 767.60 223.46 C 771.85 223.68 776.09 224.09 780.31 224.68 L 779.18 224.66 C 779.78 226.36 780.22 228.40 781.94 229.37 C 789.12 229.80 796.32 229.31 803.52 229.37 C 806.93 231.55 807.32 236.06 806.49 239.67 C 805.24 242.19 802.82 244.09 802.23 246.92 C 803.75 250.01 807.61 250.02 810.57 249.67 C 820.01 248.57 829.54 249.07 838.99 249.85 C 840.80 250.14 842.00 248.57 843.35 247.65 L 844.38 247.61 L 844.80 248.07 C 845.63 247.64 846.48 247.21 847.33 246.78 C 848.33 247.12 849.33 247.46 850.34 247.80 C 851.69 244.32 852.05 240.55 850.37 237.10 C 852.51 235.41 855.00 234.21 857.79 234.26 C 857.67 235.83 857.55 237.41 857.44 238.98 C 858.40 239.31 859.38 239.64 860.36 239.98 L 860.11 240.89 C 861.97 239.60 863.51 237.92 864.91 236.13 C 865.55 236.68 866.85 237.77 867.49 238.32 C 867.48 238.73 867.45 239.57 867.44 239.99 C 865.39 241.82 864.09 244.29 862.53 246.51 L 861.65 246.59 C 867.72 250.36 875.23 249.24 882.04 249.29 C 889.60 249.42 897.41 247.79 904.73 250.38 C 907.09 251.49 908.68 248.91 910.39 247.73 L 909.53 247.81 C 908.82 247.35 907.40 246.44 906.69 245.98 C 907.60 245.36 908.49 244.71 909.37 244.03 C 906.22 242.45 902.77 243.62 899.46 243.38 C 896.90 242.13 897.39 239.28 898.16 237.09 C 897.67 236.82 896.69 236.27 896.20 236.00 C 898.71 235.76 901.27 235.84 903.75 235.31 C 908.33 232.08 908.95 225.86 912.72 221.92 C 913.73 223.43 914.78 224.93 915.83 226.43 C 916.41 226.04 917.57 225.24 918.15 224.84 C 919.99 226.74 921.71 228.75 923.47 230.74 C 926.11 233.63 928.37 236.86 929.90 240.48 C 930.05 242.76 930.25 245.03 930.35 247.31 L 930.76 247.35 C 932.75 249.63 935.78 249.19 938.44 248.61 L 939.16 248.79 C 940.62 247.81 942.08 246.83 943.56 245.87 C 943.14 246.99 942.73 248.13 942.34 249.26 C 947.56 250.96 953.29 250.88 958.58 249.52 C 959.25 248.44 959.60 247.20 960.04 246.01 C 959.51 245.77 958.47 245.31 957.95 245.08 C 958.94 239.17 965.33 236.91 970.57 236.26 C 972.39 235.74 974.92 236.11 976.07 234.29 C 977.43 235.01 978.85 235.72 980.17 236.57 C 980.43 237.74 980.73 238.89 981.08 240.04 C 980.45 240.01 979.19 239.96 978.56 239.93 C 978.92 242.41 979.46 244.85 980.00 247.30 C 979.83 247.64 979.47 248.32 979.29 248.66 C 979.89 249.50 980.51 250.35 981.14 251.19 C 982.26 250.32 983.40 249.44 984.54 248.55 C 985.29 250.24 985.59 253.04 988.09 252.70 C 992.98 252.70 998.37 253.80 1002.84 251.28 C 1004.33 246.37 1007.26 241.93 1007.90 236.77 C 1012.82 224.80 1014.98 211.81 1016.28 198.98 C 1017.26 182.21 1016.98 165.21 1013.17 148.79 C 1009.35 130.70 1001.96 113.44 991.91 97.94 C 981.06 81.96 967.82 67.58 952.76 55.49 C 950.54 51.45 947.04 47.11 941.86 47.85 C 932.72 41.55 922.80 36.45 912.50 32.34 C 902.01 28.48 891.19 24.93 879.99 24.05 C 877.01 22.52 873.56 22.63 870.31 22.26 C 865.46 20.23 860.10 20.99 855.00 20.78 C 849.91 20.98 844.59 20.13 839.75 22.07 Z" />
<path fill="#47b200" opacity="1.00" d=" M 235.15 1.14 C 275.77 1.41 316.38 1.20 357.00 1.25 C 374.47 1.16 391.94 1.56 409.41 0.99 C 409.49 8.10 409.54 15.21 409.32 22.32 C 358.67 22.47 308.03 22.31 257.38 22.42 C 257.43 66.87 257.49 111.33 257.37 155.79 C 259.21 159.54 263.82 157.21 267.02 157.53 C 310.36 157.69 353.71 157.66 397.05 157.56 C 399.43 157.74 402.90 157.54 403.78 160.37 C 405.17 165.44 404.34 170.78 404.07 175.95 C 395.73 176.74 387.35 176.31 379.00 176.39 C 344.01 176.39 309.01 176.38 274.02 176.39 C 268.52 176.53 262.73 175.24 257.50 177.51 C 257.25 233.56 257.59 289.62 257.33 345.67 C 290.89 345.90 324.44 345.71 358.00 345.77 C 375.10 345.98 392.23 345.35 409.31 346.09 C 409.64 353.39 409.44 360.70 409.47 368.00 L 235.08 368.00 C 235.39 331.67 235.09 295.33 235.19 259.00 C 235.15 173.05 235.30 87.09 235.15 1.14 Z" />
</g>
<g id="#ecffc7ff">
<path fill="#ecffc7" opacity="1.00" d=" M 826.61 0.00 L 853.52 0.00 C 837.32 0.24 821.22 2.55 805.42 6.08 C 807.02 4.61 808.87 3.32 811.13 3.16 C 816.35 2.44 821.54 1.47 826.61 0.00 Z" />
<path fill="#ecffc7" opacity="1.00" d=" M 732.06 208.99 C 733.17 211.15 734.08 213.50 734.02 215.97 C 733.22 213.68 732.53 211.36 732.06 208.99 Z" />
</g>
<g id="#ebffd0ff">
<path fill="#ebffd0" opacity="1.00" d=" M 861.42 0.00 L 883.34 0.00 C 889.94 2.17 896.77 3.47 903.69 4.09 C 903.49 4.68 903.08 5.87 902.88 6.46 C 889.31 2.95 875.38 1.08 861.42 0.00 Z" />
</g>
<g id="#47b201ff">
<path fill="#47b201" opacity="1.00" d=" M 1.17 0.92 C 22.35 0.24 43.56 0.91 64.74 0.70 C 67.93 0.99 71.15 1.04 74.34 0.72 C 81.63 1.54 88.86 2.79 96.09 4.00 C 107.62 7.19 119.24 10.97 129.15 17.85 C 137.52 24.02 145.63 30.89 151.37 39.67 C 162.90 55.99 167.18 76.32 167.46 96.01 C 167.85 111.04 165.23 126.11 159.99 140.20 C 159.56 139.68 158.68 138.64 158.24 138.12 C 156.79 141.74 156.00 145.57 155.37 149.41 C 151.94 155.10 148.13 160.66 143.44 165.40 C 137.50 170.94 131.05 175.96 124.03 180.04 C 115.01 185.50 104.86 188.76 94.67 191.23 C 84.17 193.23 73.47 194.02 62.80 194.41 C 77.91 218.01 95.14 240.20 110.03 263.95 C 108.96 261.50 107.78 259.10 106.46 256.77 C 106.80 256.68 107.14 256.60 107.48 256.52 C 108.64 260.04 110.35 263.36 112.42 266.44 C 122.94 281.87 133.78 297.08 144.11 312.63 C 144.54 314.26 144.81 315.94 145.49 317.50 C 146.66 318.50 148.04 319.21 149.33 320.05 C 160.66 335.88 171.43 352.10 182.65 368.00 L 155.43 368.00 C 149.40 358.95 143.14 350.05 136.87 341.15 C 112.80 305.35 87.65 270.28 63.63 234.45 C 62.47 230.31 61.34 225.31 56.58 223.98 C 52.35 219.19 49.22 213.60 45.54 208.41 C 42.23 203.75 39.06 199.00 35.83 194.29 C 35.50 193.81 34.85 192.85 34.52 192.36 C 30.73 192.15 26.92 192.38 23.18 193.08 C 22.06 203.04 23.38 213.02 23.14 223.00 C 23.48 233.67 22.33 244.32 22.87 254.99 C 23.30 263.65 23.09 272.33 23.13 281.00 C 23.16 296.67 23.32 312.34 22.75 328.00 C 23.23 341.33 23.21 354.66 23.14 368.00 L 1.02 368.00 C 1.14 245.64 0.88 123.28 1.17 0.92 M 23.80 21.80 C 31.97 21.96 40.18 22.13 48.33 21.49 C 41.04 19.85 33.44 21.14 26.07 19.73 C 25.31 20.42 24.56 21.11 23.80 21.80 M 23.09 36.00 C 23.12 54.00 22.95 72.00 23.06 90.00 C 21.98 108.99 23.85 128.02 22.73 147.02 C 22.70 155.67 22.20 164.37 23.15 172.99 C 27.07 173.73 31.05 173.50 35.00 173.36 C 45.99 173.24 56.98 173.48 67.96 173.31 C 75.90 173.19 83.46 170.57 91.24 169.38 C 95.01 168.59 99.70 168.31 101.80 164.52 C 121.84 156.40 137.19 137.86 141.69 116.73 C 144.51 106.72 143.87 96.17 143.33 85.91 C 140.49 67.36 132.24 48.62 116.67 37.35 C 102.75 26.89 84.84 24.44 67.94 23.37 C 53.35 22.06 38.67 22.34 24.03 22.48 C 21.66 26.62 23.26 31.51 23.09 36.00 Z" />
</g>
<g id="#70ab39ff">
<path fill="#70ab39" opacity="1.00" d=" M 911.58 9.05 C 915.30 10.06 918.93 11.35 922.45 12.93 C 918.39 13.16 914.40 12.14 911.58 9.05 Z" />
</g>
<g id="#5aa327ff">
<path fill="#5aa327" opacity="1.00" d=" M 23.80 21.80 C 24.56 21.11 25.31 20.42 26.07 19.73 C 33.44 21.14 41.04 19.85 48.33 21.49 C 40.18 22.13 31.97 21.96 23.80 21.80 Z" />
</g>
<g id="#6eaf3eff">
<path fill="#6eaf3e" opacity="1.00" d=" M 839.75 22.07 C 844.59 20.13 849.91 20.98 855.00 20.78 C 860.10 20.99 865.46 20.23 870.31 22.26 C 860.13 21.69 849.93 21.86 839.75 22.07 Z" />
</g>
<g id="#d6f7c3ff">
<path fill="#d6f7c3" opacity="1.00" d=" M 813.34 26.81 C 821.74 23.61 830.89 23.12 839.75 22.07 C 849.93 21.86 860.13 21.69 870.31 22.26 C 873.56 22.63 877.01 22.52 879.99 24.05 C 867.39 24.00 854.84 21.64 842.24 23.23 C 832.45 23.27 823.15 27.34 813.34 26.81 Z" />
</g>
<g id="#5cab30ff">
<path fill="#5cab30" opacity="1.00" d=" M 23.09 36.00 C 23.26 31.51 21.66 26.62 24.03 22.48 C 24.31 26.31 24.24 30.16 24.23 34.00 C 24.19 79.84 24.27 125.69 24.21 171.53 C 36.80 171.90 49.41 171.67 62.00 171.61 C 75.51 171.17 89.03 169.03 101.80 164.52 C 99.70 168.31 95.01 168.59 91.24 169.38 C 83.46 170.57 75.90 173.19 67.96 173.31 C 56.98 173.48 45.99 173.24 35.00 173.36 C 31.05 173.50 27.07 173.73 23.15 172.99 C 22.20 164.37 22.70 155.67 22.73 147.02 C 23.85 128.02 21.98 108.99 23.06 90.00 C 22.95 72.00 23.12 54.00 23.09 36.00 Z" />
<path fill="#5cab30" opacity="1.00" d=" M 974.85 228.94 C 976.49 227.50 978.23 226.17 979.93 224.79 C 980.13 225.72 980.36 226.65 980.59 227.59 C 982.44 227.82 984.28 228.07 986.16 228.23 C 982.36 229.46 978.11 230.48 976.07 234.29 C 974.92 236.11 972.39 235.74 970.57 236.26 C 965.33 236.91 958.94 239.17 957.95 245.08 C 958.47 245.31 959.51 245.77 960.04 246.01 C 959.60 247.20 959.25 248.44 958.58 249.52 C 953.29 250.88 947.56 250.96 942.34 249.26 C 942.73 248.13 943.14 246.99 943.56 245.87 C 942.08 246.83 940.62 247.81 939.16 248.79 L 938.44 248.61 C 935.92 247.93 933.35 247.49 930.76 247.35 L 930.35 247.31 C 930.25 245.03 930.05 242.76 929.90 240.48 C 936.62 241.19 943.31 239.80 950.04 240.15 C 948.27 243.20 946.20 246.05 944.03 248.81 C 948.19 249.12 952.36 249.31 956.54 249.27 C 956.64 245.97 956.35 242.31 958.49 239.53 C 960.11 237.06 962.84 235.74 965.53 234.75 C 968.09 234.27 970.68 233.98 973.28 233.69 C 973.32 233.23 973.38 232.31 973.42 231.85 C 973.85 230.86 974.29 229.87 974.85 228.94 M 931.60 245.73 C 935.84 246.20 940.58 246.81 944.27 244.12 C 939.98 243.50 935.50 243.69 931.60 245.73 Z" />
</g>
<g id="#649e2dff">
<path fill="#649e2d" opacity="1.00" d=" M 941.86 47.85 C 947.04 47.11 950.54 51.45 952.76 55.49 C 949.01 53.11 945.49 50.40 941.86 47.85 Z" />
<path fill="#649e2d" opacity="1.00" d=" M 980.17 236.57 C 983.41 238.29 985.14 241.63 985.83 245.11 C 985.92 246.93 985.97 248.76 986.06 250.59 C 991.65 250.85 997.24 251.10 1002.84 251.28 C 998.37 253.80 992.98 252.70 988.09 252.70 C 985.59 253.04 985.29 250.24 984.54 248.55 C 983.40 249.44 982.26 250.32 981.14 251.19 C 980.51 250.35 979.89 249.50 979.29 248.66 C 979.47 248.32 979.83 247.64 980.00 247.30 C 981.01 247.26 982.02 247.23 983.05 247.20 C 982.51 244.78 981.87 242.38 981.08 240.04 C 980.73 238.89 980.43 237.74 980.17 236.57 Z" />
</g>
<g id="#5fa72fff">
<path fill="#5fa72f" opacity="1.00" d=" M 735.32 70.30 C 737.33 67.11 740.55 64.13 744.58 64.31 C 737.34 71.31 730.55 78.74 724.17 86.53 C 722.74 84.11 725.11 82.31 726.57 80.66 C 729.74 77.43 732.86 74.12 735.32 70.30 Z" />
</g>
<g id="#7bbc4eff">
<path fill="#7bbc4e" opacity="1.00" d=" M 155.37 149.41 C 156.00 145.57 156.79 141.74 158.24 138.12 C 158.68 138.64 159.56 139.68 159.99 140.20 C 158.90 143.47 157.19 146.49 155.37 149.41 Z" />
</g>
<g id="#ebffcaff">
<path fill="#ebffca" opacity="1.00" d=" M 1036.77 149.00 C 1037.92 151.43 1039.14 153.84 1040.00 156.40 L 1040.00 180.53 C 1039.68 169.95 1038.26 159.46 1036.77 149.00 Z" />
</g>
<g id="#599e36ff">
<path fill="#599e36" opacity="1.00" d=" M 257.37 155.79 C 272.24 155.51 287.13 155.79 302.00 155.69 C 336.55 155.81 371.11 155.46 405.65 155.86 C 405.77 163.19 405.80 170.52 405.66 177.85 C 400.12 178.36 394.55 178.13 389.00 178.15 C 352.33 178.15 315.67 178.14 279.00 178.15 C 271.83 178.10 264.61 178.65 257.50 177.51 C 262.73 175.24 268.52 176.53 274.02 176.39 C 309.01 176.38 344.01 176.39 379.00 176.39 C 387.35 176.31 395.73 176.74 404.07 175.95 C 404.34 170.78 405.17 165.44 403.78 160.37 C 402.90 157.54 399.43 157.74 397.05 157.56 C 353.71 157.66 310.36 157.69 267.02 157.53 C 263.82 157.21 259.21 159.54 257.37 155.79 Z" />
<path fill="#599e36" opacity="1.00" d=" M 765.13 231.76 C 765.73 232.69 766.37 233.62 766.86 234.64 C 766.00 235.15 765.14 235.63 764.28 236.09 C 764.51 234.64 764.79 233.19 765.13 231.76 Z" />
<path fill="#599e36" opacity="1.00" d=" M 768.29 236.28 C 768.90 236.27 770.11 236.25 770.72 236.23 C 770.72 237.45 770.73 238.67 770.76 239.89 C 770.18 239.79 769.03 239.60 768.46 239.51 C 768.40 238.43 768.34 237.36 768.29 236.28 Z" />
</g>
<g id="#f7fff4ff">
<path fill="#f7fff4" opacity="1.00" d=" M 1023.62 259.70 C 1034.21 237.17 1039.36 212.31 1040.00 187.49 L 1040.00 233.87 C 1037.21 235.72 1034.24 237.71 1033.30 241.12 C 1029.98 247.85 1029.64 255.70 1025.67 262.10 C 1025.16 261.50 1024.13 260.30 1023.62 259.70 Z" />
</g>
<g id="#66ab38ff">
<path fill="#66ab38" opacity="1.00" d=" M 23.18 193.08 C 26.92 192.38 30.73 192.15 34.52 192.36 C 34.85 192.85 35.50 193.81 35.83 194.29 C 31.98 194.27 28.14 194.29 24.30 194.32 C 24.14 252.21 24.31 310.11 24.23 368.00 L 23.14 368.00 C 23.21 354.66 23.23 341.33 22.75 328.00 C 23.32 312.34 23.16 296.67 23.13 281.00 C 23.09 272.33 23.30 263.65 22.87 254.99 C 22.33 244.32 23.48 233.67 23.14 223.00 C 23.38 213.02 22.06 203.04 23.18 193.08 Z" />
</g>
<g id="#e5ffcfff">
<path fill="#e5ffcf" opacity="1.00" d=" M 483.39 205.91 C 482.67 199.63 489.20 196.46 493.02 192.69 C 499.02 197.78 504.24 203.67 509.95 209.05 C 517.93 217.16 526.18 225.01 533.96 233.31 C 528.08 231.82 523.63 227.60 519.98 222.97 C 515.63 217.34 509.57 213.40 505.12 207.87 C 501.83 203.86 498.20 200.15 494.57 196.45 C 492.82 197.35 491.08 198.26 489.35 199.21 C 491.52 200.61 493.71 201.97 495.93 203.31 C 494.61 204.11 493.31 204.91 492.01 205.72 C 490.48 204.34 488.95 202.97 487.42 201.62 C 486.65 203.15 485.63 204.66 485.52 206.42 C 485.83 260.27 485.44 314.14 485.73 368.00 L 483.42 368.00 C 483.43 313.97 483.49 259.94 483.39 205.91 Z" />
</g>
<g id="#4aaf0dff">
<path fill="#4aaf0d" opacity="1.00" d=" M 957.16 199.09 C 959.46 197.02 962.63 198.09 965.28 198.71 C 965.97 200.06 966.68 201.42 967.39 202.78 C 965.94 204.26 964.51 205.74 963.11 207.24 C 963.49 209.18 964.13 211.08 964.27 213.07 C 963.87 214.96 962.73 216.66 962.63 218.60 C 963.95 222.25 967.38 224.54 969.16 227.91 C 970.19 229.67 969.75 231.77 969.79 233.70 C 967.35 231.61 964.92 229.49 962.13 227.88 C 960.19 226.66 958.17 225.51 956.56 223.87 C 956.35 221.95 956.86 220.06 957.24 218.19 C 955.40 216.32 953.80 214.25 952.35 212.08 C 953.69 210.33 955.06 208.59 956.49 206.90 C 956.21 204.34 954.75 201.07 957.16 199.09 Z" />
</g>
<g id="#47b205ff">
<path fill="#47b205" opacity="1.00" d=" M 969.08 199.73 C 971.55 197.53 976.49 195.83 978.63 199.25 C 980.34 202.49 982.26 205.65 983.72 209.03 C 983.12 211.50 981.66 213.64 980.66 215.95 C 981.73 214.60 982.87 213.26 983.56 211.66 C 984.85 209.06 983.25 206.26 982.86 203.65 C 985.29 203.15 988.02 201.99 990.31 203.61 C 993.12 205.12 992.26 208.87 992.48 211.52 C 992.42 214.13 992.30 216.74 992.20 219.35 C 991.04 220.03 989.89 220.69 988.73 221.35 C 989.24 223.12 989.66 224.91 990.03 226.72 C 988.74 227.24 987.46 227.77 986.16 228.23 C 984.28 228.07 982.44 227.82 980.59 227.59 C 980.36 226.65 980.13 225.72 979.93 224.79 C 982.57 222.90 984.36 220.11 984.49 216.81 C 981.42 220.97 977.51 224.49 974.85 228.94 C 974.29 229.87 973.85 230.86 973.42 231.85 C 973.05 232.29 972.32 233.17 971.96 233.61 C 970.38 227.69 966.30 223.08 962.91 218.12 C 963.86 216.66 964.86 215.21 965.84 213.76 C 965.21 211.62 964.62 209.47 964.13 207.29 C 966.50 205.30 969.10 203.15 969.08 199.73 Z" />
</g>
<g id="#e9f8bdff">
<path fill="#e9f8bd" opacity="1.00" d=" M 965.28 198.71 C 966.54 199.04 967.80 199.39 969.08 199.73 C 969.10 203.15 966.50 205.30 964.13 207.29 C 964.62 209.47 965.21 211.62 965.84 213.76 C 964.86 215.21 963.86 216.66 962.91 218.12 C 966.30 223.08 970.38 227.69 971.96 233.61 C 972.32 233.17 973.05 232.29 973.42 231.85 C 973.38 232.31 973.32 233.23 973.28 233.69 C 970.68 233.98 968.09 234.27 965.53 234.75 C 965.39 232.06 964.21 229.60 962.13 227.88 C 964.92 229.49 967.35 231.61 969.79 233.70 C 969.75 231.77 970.19 229.67 969.16 227.91 C 967.38 224.54 963.95 222.25 962.63 218.60 C 962.73 216.66 963.87 214.96 964.27 213.07 C 964.13 211.08 963.49 209.18 963.11 207.24 C 964.51 205.74 965.94 204.26 967.39 202.78 C 966.68 201.42 965.97 200.06 965.28 198.71 Z" />
<path fill="#e9f8bd" opacity="1.00" d=" M 907.97 220.07 C 910.05 227.01 904.41 235.89 896.62 234.29 C 897.17 233.81 898.26 232.85 898.81 232.37 C 903.12 229.33 905.40 224.49 907.97 220.07 Z" />
</g>
<g id="#48b207ff">
<path fill="#48b207" opacity="1.00" d=" M 730.11 204.88 C 732.29 203.18 734.34 201.11 737.03 200.25 C 739.19 200.87 741.15 202.02 743.21 202.91 C 743.71 207.16 744.47 211.38 744.62 215.66 C 741.02 218.17 736.87 220.75 736.16 225.48 C 738.45 226.98 741.40 228.23 742.37 231.02 C 743.49 237.26 740.76 243.28 740.16 249.42 L 740.07 250.26 C 739.25 250.14 737.61 249.90 736.78 249.78 C 737.48 244.10 740.72 238.88 740.37 233.06 C 739.33 230.64 737.04 229.07 735.27 227.23 C 733.59 229.76 730.72 231.13 727.72 230.25 C 727.41 230.14 726.79 229.92 726.48 229.81 C 726.80 228.91 727.16 228.02 727.52 227.13 C 729.93 226.65 732.36 226.29 734.79 225.91 C 733.98 225.41 733.18 224.92 732.39 224.43 C 732.39 222.55 732.39 220.67 732.40 218.80 C 731.65 219.23 730.92 219.67 730.19 220.12 C 730.21 222.17 730.23 224.22 730.21 226.27 C 729.50 226.18 728.08 226.02 727.37 225.93 C 726.80 224.34 726.25 222.75 725.71 221.16 C 724.52 221.00 723.34 220.85 722.17 220.71 C 720.71 218.79 718.90 216.93 718.58 214.43 C 717.65 210.56 720.55 207.28 722.33 204.14 C 724.92 204.38 727.53 204.53 730.11 204.88 M 732.06 208.99 C 732.53 211.36 733.22 213.68 734.02 215.97 C 734.08 213.50 733.17 211.15 732.06 208.99 Z" />
</g>
<g id="#4ab109ff">
<path fill="#4ab109" opacity="1.00" d=" M 850.17 213.04 C 851.81 212.46 853.70 211.30 855.37 212.48 C 859.51 214.73 863.92 216.49 867.92 219.00 C 869.43 219.92 869.99 221.70 870.86 223.15 C 875.37 222.94 878.89 226.72 879.82 230.85 C 879.83 233.67 880.43 238.53 876.42 238.56 C 873.32 237.67 869.90 237.60 867.44 239.99 C 867.45 239.57 867.48 238.73 867.49 238.32 C 866.60 235.94 864.64 234.26 862.66 232.81 C 861.83 235.17 861.03 237.56 860.36 239.98 C 859.38 239.64 858.40 239.31 857.44 238.98 C 857.55 237.41 857.67 235.83 857.79 234.26 C 855.00 234.21 852.51 235.41 850.37 237.10 C 852.05 240.55 851.69 244.32 850.34 247.80 C 849.33 247.46 848.33 247.12 847.33 246.78 C 846.48 247.21 845.63 247.64 844.80 248.07 L 844.38 247.61 C 842.62 245.69 841.04 243.53 838.84 242.09 C 835.68 242.57 832.67 243.73 829.57 244.49 C 828.86 241.63 827.78 238.85 827.56 235.90 C 827.88 234.04 828.96 232.43 829.70 230.72 C 831.38 230.62 832.85 229.75 834.21 228.81 C 837.58 225.96 842.28 227.42 845.78 229.24 C 846.50 231.02 846.86 232.92 847.32 234.79 C 845.31 236.54 843.35 238.34 841.55 240.30 C 842.61 239.98 843.69 239.65 844.78 239.34 C 846.18 240.56 847.61 241.77 849.07 242.96 C 848.12 241.14 847.13 239.36 846.16 237.58 C 847.19 236.40 848.24 235.23 849.26 234.03 C 848.20 232.29 847.50 230.35 846.37 228.67 C 843.09 227.39 839.21 227.26 836.53 224.65 C 839.67 222.32 841.31 218.68 843.85 215.82 C 845.86 214.71 848.06 213.96 850.17 213.04 M 855.44 224.82 C 854.69 227.36 853.79 229.86 852.92 232.36 C 854.98 230.88 856.16 228.65 856.95 226.29 C 856.58 225.92 855.82 225.19 855.44 224.82 M 860.25 225.36 C 859.67 227.92 857.26 231.65 860.37 233.44 C 860.76 230.40 861.34 227.37 862.55 224.53 C 861.97 224.74 860.82 225.15 860.25 225.36 Z" />
</g>
<g id="#78a950ff">
<path fill="#78a950" opacity="1.00" d=" M 992.48 211.52 C 993.70 213.41 994.33 215.58 994.71 217.79 C 994.08 218.18 992.83 218.96 992.20 219.35 C 992.30 216.74 992.42 214.13 992.48 211.52 Z" />
</g>
<g id="#d6f7baff">
<path fill="#d6f7ba" opacity="1.00" d=" M 908.29 215.75 C 911.54 216.25 914.66 214.99 917.65 213.88 C 920.88 216.06 924.44 217.99 926.86 221.14 C 921.91 219.29 917.06 216.97 911.71 216.59 C 915.25 219.60 918.88 222.54 921.91 226.09 C 923.13 225.42 924.37 224.76 925.61 224.07 C 924.58 226.19 923.95 228.45 923.47 230.74 C 921.71 228.75 919.99 226.74 918.15 224.84 C 912.08 217.62 901.87 214.56 892.75 216.73 L 891.92 216.89 C 891.50 217.02 890.66 217.28 890.24 217.41 C 889.18 225.60 893.72 232.77 895.92 240.32 C 891.17 236.32 890.39 229.78 888.87 224.13 C 888.44 221.39 887.35 217.09 890.74 215.81 C 896.34 213.26 902.50 215.08 908.29 215.75 Z" />
</g>
<g id="#53a31dff">
<path fill="#53a31d" opacity="1.00" d=" M 892.75 216.73 C 901.87 214.56 912.08 217.62 918.15 224.84 C 917.57 225.24 916.41 226.04 915.83 226.43 C 914.78 224.93 913.73 223.43 912.72 221.92 C 908.95 225.86 908.33 232.08 903.75 235.31 C 901.27 235.84 898.71 235.76 896.20 236.00 C 896.69 236.27 897.67 236.82 898.16 237.09 C 897.39 239.28 896.90 242.13 899.46 243.38 C 902.77 243.62 906.22 242.45 909.37 244.03 C 908.49 244.71 907.60 245.36 906.69 245.98 C 905.22 245.63 903.76 245.29 902.31 244.97 C 901.76 246.09 901.23 247.21 900.71 248.34 C 903.65 248.30 906.59 248.15 909.53 247.81 L 910.39 247.73 C 908.68 248.91 907.09 251.49 904.73 250.38 C 897.41 247.79 889.60 249.42 882.04 249.29 C 875.23 249.24 867.72 250.36 861.65 246.59 L 862.53 246.51 C 864.08 246.36 865.65 246.26 867.23 246.31 C 869.74 246.99 872.26 247.81 874.91 247.78 C 882.61 247.85 890.31 247.89 898.00 247.69 C 897.29 245.23 896.57 242.79 895.92 240.32 C 893.72 232.77 889.18 225.60 890.24 217.41 C 890.66 217.28 891.50 217.02 891.92 216.89 C 892.27 222.84 892.51 229.56 896.62 234.29 C 904.41 235.89 910.05 227.01 907.97 220.07 C 905.40 224.49 903.12 229.33 898.81 232.37 C 899.66 229.31 901.49 226.70 903.64 224.42 C 902.86 224.09 902.09 223.75 901.34 223.43 C 901.33 222.39 901.32 221.36 901.29 220.33 C 901.08 220.01 900.65 219.38 900.44 219.06 C 900.28 218.83 899.96 218.38 899.80 218.15 C 897.41 217.91 895.08 217.28 892.75 216.73 Z" />
</g>
<g id="#44b701ff">
<path fill="#44b701" opacity="1.00" d=" M 891.92 216.89 L 892.75 216.73 C 895.08 217.28 897.41 217.91 899.80 218.15 C 899.96 218.38 900.28 218.83 900.44 219.06 C 899.96 219.85 899.00 221.43 898.52 222.22 C 899.22 222.52 900.63 223.12 901.34 223.43 C 902.09 223.75 902.86 224.09 903.64 224.42 C 901.49 226.70 899.66 229.31 898.81 232.37 C 898.26 232.85 897.17 233.81 896.62 234.29 C 892.51 229.56 892.27 222.84 891.92 216.89 Z" />
</g>
<g id="#51ac11ff">
<path fill="#51ac11" opacity="1.00" d=" M 911.71 216.59 C 917.06 216.97 921.91 219.29 926.86 221.14 C 926.49 222.14 926.06 223.12 925.61 224.07 C 924.37 224.76 923.13 225.42 921.91 226.09 C 918.88 222.54 915.25 219.60 911.71 216.59 Z" />
</g>
<g id="#a0f267ff">
<path fill="#a0f267" opacity="1.00" d=" M 974.85 228.94 C 977.51 224.49 981.42 220.97 984.49 216.81 C 984.36 220.11 982.57 222.90 979.93 224.79 C 978.23 226.17 976.49 227.50 974.85 228.94 Z" />
</g>
<g id="#bdf494ff">
<path fill="#bdf494" opacity="1.00" d=" M 730.19 220.12 C 730.92 219.67 731.65 219.23 732.40 218.80 C 732.39 220.67 732.39 222.55 732.39 224.43 C 733.18 224.92 733.98 225.41 734.79 225.91 C 732.36 226.29 729.93 226.65 727.52 227.13 C 726.33 227.39 725.15 227.66 723.98 227.94 C 724.44 226.98 724.91 226.02 725.39 225.07 C 724.32 223.60 723.26 222.14 722.17 220.71 C 723.34 220.85 724.52 221.00 725.71 221.16 C 726.25 222.75 726.80 224.34 727.37 225.93 C 728.08 226.02 729.50 226.18 730.21 226.27 C 730.23 224.22 730.21 222.17 730.19 220.12 Z" />
</g>
<g id="#b8fd7cff">
<path fill="#b8fd7c" opacity="1.00" d=" M 898.52 222.22 C 899.00 221.43 899.96 219.85 900.44 219.06 C 900.65 219.38 901.08 220.01 901.29 220.33 C 901.32 221.36 901.33 222.39 901.34 223.43 C 900.63 223.12 899.22 222.52 898.52 222.22 Z" />
</g>
<g id="#d0f3b4ff">
<path fill="#d0f3b4" opacity="1.00" d=" M 778.69 222.10 C 785.37 221.17 792.16 220.83 798.89 221.50 C 803.17 221.84 806.34 225.02 809.34 227.76 C 811.79 227.28 814.36 225.99 816.86 226.83 C 819.25 230.74 819.47 236.11 816.09 239.56 C 817.02 235.50 816.61 231.43 815.44 227.48 C 813.73 228.45 811.97 229.34 810.19 230.14 C 810.54 233.75 810.61 237.38 810.49 241.00 C 812.13 240.61 813.80 240.26 815.46 239.87 C 812.56 241.40 809.61 242.84 806.58 244.10 C 811.51 236.97 808.41 224.86 799.41 222.90 C 792.57 221.82 785.59 222.48 778.69 222.10 Z" />
</g>
<g id="#5ca21eff">
<path fill="#5ca21e" opacity="1.00" d=" M 767.60 223.46 C 771.16 222.24 774.97 222.32 778.69 222.10 C 785.59 222.48 792.57 221.82 799.41 222.90 C 808.41 224.86 811.51 236.97 806.58 244.10 C 805.73 245.37 804.82 246.61 803.95 247.86 C 817.07 248.37 830.22 247.74 843.35 247.65 C 842.00 248.57 840.80 250.14 838.99 249.85 C 829.54 249.07 820.01 248.57 810.57 249.67 C 807.61 250.02 803.75 250.01 802.23 246.92 C 802.82 244.09 805.24 242.19 806.49 239.67 C 807.32 236.06 806.93 231.55 803.52 229.37 C 797.07 224.03 788.07 225.44 780.31 224.68 C 776.09 224.09 771.85 223.68 767.60 223.46 Z" />
</g>
<g id="#66aa38ff">
<path fill="#66aa38" opacity="1.00" d=" M 672.03 222.82 C 674.48 226.53 676.05 230.72 676.95 235.07 C 678.77 243.74 684.14 251.33 684.69 260.31 C 678.74 248.51 674.47 235.80 672.03 222.82 Z" />
</g>
<g id="#68a839ff">
<path fill="#68a839" opacity="1.00" d=" M 56.58 223.98 C 61.34 225.31 62.47 230.31 63.63 234.45 C 60.97 231.18 58.57 227.70 56.58 223.98 Z" />
</g>
<g id="#629f2aff">
<path fill="#629f2a" opacity="1.00" d=" M 762.00 226.92 C 763.27 225.22 765.57 225.33 767.44 224.90 C 767.62 225.68 767.81 226.46 768.01 227.24 C 762.01 230.94 759.34 238.73 761.77 245.35 C 762.29 247.96 765.18 248.46 767.16 249.58 C 767.42 249.90 767.95 250.53 768.21 250.85 C 765.58 251.46 763.07 250.88 761.12 249.03 C 760.48 248.77 759.22 248.26 758.59 248.00 C 756.96 240.97 756.83 232.56 762.00 226.92 Z" />
</g>
<g id="#f7ffebff">
</g>
<g id="#88e245ff">
<path fill="#88e245" opacity="1.00" d=" M 855.44 224.82 C 855.82 225.19 856.58 225.92 856.95 226.29 C 856.16 228.65 854.98 230.88 852.92 232.36 C 853.79 229.86 854.69 227.36 855.44 224.82 Z" />
</g>
<g id="#8fe953ff">
<path fill="#8fe953" opacity="1.00" d=" M 860.25 225.36 C 860.82 225.15 861.97 224.74 862.55 224.53 C 861.34 227.37 860.76 230.40 860.37 233.44 C 857.26 231.65 859.67 227.92 860.25 225.36 Z" />
</g>
<g id="#5d9c24ff">
<path fill="#5d9c24" opacity="1.00" d=" M 723.98 227.94 C 725.15 227.66 726.33 227.39 727.52 227.13 C 727.16 228.02 726.80 228.91 726.48 229.81 C 724.61 235.66 726.01 241.90 726.80 247.83 C 726.20 251.07 722.69 252.87 719.60 252.45 C 714.40 251.92 708.85 253.26 703.97 250.95 L 705.06 250.86 C 711.32 250.47 717.61 250.65 723.87 250.16 C 723.54 245.06 722.47 240.05 721.89 234.98 C 721.42 232.42 722.98 230.16 723.98 227.94 Z" />
</g>
<g id="#f1ffe5ff">
</g>
<g id="#4da912ff">
<path fill="#4da912" opacity="1.00" d=" M 810.19 230.14 C 811.97 229.34 813.73 228.45 815.44 227.48 C 816.61 231.43 817.02 235.50 816.09 239.56 L 815.46 239.87 C 813.80 240.26 812.13 240.61 810.49 241.00 C 810.61 237.38 810.54 233.75 810.19 230.14 Z" />
</g>
<g id="#7aaf55ff">
<path fill="#7aaf55" opacity="1.00" d=" M 829.70 230.72 C 830.12 228.65 832.43 227.23 834.21 228.81 C 832.85 229.75 831.38 230.62 829.70 230.72 Z" />
</g>
<g id="#adf871ff">
<path fill="#adf871" opacity="1.00" d=" M 726.80 247.83 C 726.01 241.90 724.61 235.66 726.48 229.81 C 726.79 229.92 727.41 230.14 727.72 230.25 C 727.26 233.89 726.96 237.60 727.71 241.23 C 728.10 244.45 729.42 247.79 728.14 250.98 C 727.80 250.19 727.13 248.62 726.80 247.83 Z" />
</g>
<g id="#8ca27aff">
<path fill="#8ca27a" opacity="1.00" d=" M 774.19 234.59 C 776.29 233.43 777.01 237.75 774.84 237.88 C 773.31 237.70 773.13 235.42 774.19 234.59 Z" />
</g>
<g id="#d6f6bfff">
<path fill="#d6f6bf" opacity="1.00" d=" M 1000.65 248.83 C 1003.96 245.50 1005.01 240.50 1007.90 236.77 C 1007.26 241.93 1004.33 246.37 1002.84 251.28 C 997.24 251.10 991.65 250.85 986.06 250.59 C 985.97 248.76 985.92 246.93 985.83 245.11 C 989.06 249.77 995.63 250.09 1000.65 248.83 Z" />
</g>
<g id="#cef9b1ff">
<path fill="#cef9b1" opacity="1.00" d=" M 867.44 239.99 C 869.90 237.60 873.32 237.67 876.42 238.56 C 873.72 239.28 870.80 239.71 868.49 241.40 C 867.68 242.91 867.54 244.66 867.23 246.31 C 865.65 246.26 864.08 246.36 862.53 246.51 C 864.09 244.29 865.39 241.82 867.44 239.99 Z" />
</g>
<g id="#809a69ff">
<path fill="#809a69" opacity="1.00" d=" M 764.69 239.14 C 765.36 239.33 766.70 239.71 767.36 239.89 C 767.28 240.80 767.13 242.61 767.05 243.52 C 764.17 243.85 764.36 241.09 764.69 239.14 Z" />
</g>
<g id="#9ba88dff">
<path fill="#9ba88d" opacity="1.00" d=" M 772.17 240.09 C 772.84 240.09 774.18 240.11 774.85 240.12 C 774.88 240.88 774.92 242.40 774.94 243.16 C 774.27 243.13 772.91 243.09 772.24 243.06 C 772.22 242.32 772.19 240.83 772.17 240.09 Z" />
</g>
<g id="#bbf48dff">
<path fill="#bbf48d" opacity="1.00" d=" M 978.56 239.93 C 979.19 239.96 980.45 240.01 981.08 240.04 C 981.87 242.38 982.51 244.78 983.05 247.20 C 982.02 247.23 981.01 247.26 980.00 247.30 C 979.46 244.85 978.92 242.41 978.56 239.93 Z" />
</g>
<g id="#f2ffdeff">
<path fill="#f2ffde" opacity="1.00" d=" M 829.57 244.49 C 832.67 243.73 835.68 242.57 838.84 242.09 C 841.04 243.53 842.62 245.69 844.38 247.61 L 843.35 247.65 C 830.22 247.74 817.07 248.37 803.95 247.86 C 804.82 246.61 805.73 245.37 806.58 244.10 C 807.93 245.16 809.13 246.79 811.03 246.83 C 817.53 247.31 824.06 246.73 830.58 246.75 C 830.23 245.99 829.89 245.24 829.57 244.49 Z" />
</g>
<g id="#c3fd92ff">
<path fill="#c3fd92" opacity="1.00" d=" M 931.60 245.73 C 935.50 243.69 939.98 243.50 944.27 244.12 C 940.58 246.81 935.84 246.20 931.60 245.73 Z" />
</g>
<g id="#c3f78cff">
<path fill="#c3f78c" opacity="1.00" d=" M 902.31 244.97 C 903.76 245.29 905.22 245.63 906.69 245.98 C 907.40 246.44 908.82 247.35 909.53 247.81 C 906.59 248.15 903.65 248.30 900.71 248.34 C 901.23 247.21 901.76 246.09 902.31 244.97 Z" />
</g>
<g id="#a0f664ff">
<path fill="#a0f664" opacity="1.00" d=" M 930.76 247.35 C 933.35 247.49 935.92 247.93 938.44 248.61 C 935.78 249.19 932.75 249.63 930.76 247.35 Z" />
</g>
<g id="#56a52cff">
<path fill="#56a52c" opacity="1.00" d=" M 740.16 249.42 C 746.35 249.54 752.56 249.31 758.74 248.75 C 758.07 249.93 757.41 251.12 756.75 252.31 C 751.20 251.07 745.51 251.63 739.90 251.83 C 739.94 251.44 740.03 250.65 740.07 250.26 L 740.16 249.42 Z" />
</g>
<g id="#dbf9c2ff">
<path fill="#dbf9c2" opacity="1.00" d=" M 710.25 302.76 C 704.79 295.24 696.94 288.93 694.92 279.42 C 699.97 285.94 704.55 292.82 709.89 299.12 C 715.79 306.58 723.07 312.76 729.39 319.84 C 727.06 318.92 724.57 318.14 722.81 316.26 C 718.52 311.85 713.90 307.73 710.25 302.76 Z" />
</g>
<g id="#5ea938ff">
<path fill="#5ea938" opacity="1.00" d=" M 144.11 312.63 C 145.98 315.01 147.71 317.50 149.33 320.05 C 148.04 319.21 146.66 318.50 145.49 317.50 C 144.81 315.94 144.54 314.26 144.11 312.63 Z" />
</g>
<g id="#e1f6c2ff">
<path fill="#e1f6c2" opacity="1.00" d=" M 751.93 337.69 C 754.81 339.25 757.62 340.92 760.31 342.80 C 756.94 342.14 753.40 341.15 751.93 337.69 Z" />
</g>
<g id="#f6ffe8ff">
<path fill="#f6ffe8" opacity="1.00" d=" M 928.48 352.42 C 930.73 351.62 932.95 350.79 935.16 349.87 C 927.95 356.29 918.24 358.64 909.32 361.70 C 902.95 364.07 896.04 364.76 890.00 368.00 L 877.30 368.00 C 878.62 367.36 879.92 366.66 881.26 366.02 C 894.34 364.01 907.39 361.19 919.65 356.10 C 922.69 355.11 925.65 353.89 928.48 352.42 Z" />
</g>
<g id="#6bac3cff">
<path fill="#6bac3c" opacity="1.00" d=" M 919.65 356.10 C 922.06 353.77 925.18 352.66 928.48 352.42 C 925.65 353.89 922.69 355.11 919.65 356.10 Z" />
</g>
<g id="#ecffc9ff">
<path fill="#ecffc9" opacity="1.00" d=" M 809.27 364.67 C 807.29 364.48 805.85 363.08 804.58 361.71 C 818.37 364.96 832.43 367.12 846.58 368.00 L 824.78 368.00 C 819.79 366.11 814.50 365.51 809.27 364.67 Z" />
</g>
<g id="#acf07dff">
<path fill="#acf07d" opacity="1.00" d=" M 862.34 368.00 C 868.60 366.98 874.93 366.46 881.26 366.02 C 879.92 366.66 878.62 367.36 877.30 368.00 L 862.34 368.00 Z" />
</g>
</svg>
